<?xml version="1.0" encoding="utf-8" standalone="no"?>
<!DOCTYPE svg PUBLIC "-//W3C//DTD SVG 1.1//EN"
  "http://www.w3.org/Graphics/SVG/1.1/DTD/svg11.dtd">
<svg xmlns:xlink="http://www.w3.org/1999/xlink" width="460.8pt" height="345.6pt" viewBox="0 0 460.8 345.6" xmlns="http://www.w3.org/2000/svg" version="1.1">
 <metadata>
  <rdf:RDF xmlns:dc="http://purl.org/dc/elements/1.1/" xmlns:cc="http://creativecommons.org/ns#" xmlns:rdf="http://www.w3.org/1999/02/22-rdf-syntax-ns#">
   <cc:Work>
    <dc:type rdf:resource="http://purl.org/dc/dcmitype/StillImage"/>
    <dc:date>2025-02-28T09:39:37.335488</dc:date>
    <dc:format>image/svg+xml</dc:format>
    <dc:creator>
     <cc:Agent>
      <dc:title>Matplotlib v3.10.0, https://matplotlib.org/</dc:title>
     </cc:Agent>
    </dc:creator>
   </cc:Work>
  </rdf:RDF>
 </metadata>
 <defs>
  <style type="text/css">*{stroke-linejoin: round; stroke-linecap: butt}</style>
 </defs>
 <g id="figure_1">
  <g id="patch_1">
   <path d="M 0 345.6 
L 460.8 345.6 
L 460.8 0 
L 0 0 
z
" style="fill: #ffffff"/>
  </g>
  <g id="axes_1">
   <g id="patch_2">
    <path d="M 173.135496 307.584 
L 299.184504 307.584 
L 299.184504 41.472 
L 173.135496 41.472 
z
" style="fill: #ffffff"/>
   </g>
   <g id="matplotlib.axis_1">
    <g id="xtick_1">
     <g id="line2d_1">
      <defs>
       <path id="m4adfc15395" d="M 0 0 
L 0 3.5 
" style="stroke: #000000; stroke-width: 0.8"/>
      </defs>
      <g>
       <use xlink:href="#m4adfc15395" x="204.794122" y="307.584" style="stroke: #000000; stroke-width: 0.8"/>
      </g>
     </g>
     <g id="text_1">
      <!-- 0 -->
      <g transform="translate(201.612872 322.182437) scale(0.1 -0.1)">
       <defs>
        <path id="DejaVuSans-30" d="M 2034 4250 
Q 1547 4250 1301 3770 
Q 1056 3291 1056 2328 
Q 1056 1369 1301 889 
Q 1547 409 2034 409 
Q 2525 409 2770 889 
Q 3016 1369 3016 2328 
Q 3016 3291 2770 3770 
Q 2525 4250 2034 4250 
z
M 2034 4750 
Q 2819 4750 3233 4129 
Q 3647 3509 3647 2328 
Q 3647 1150 3233 529 
Q 2819 -91 2034 -91 
Q 1250 -91 836 529 
Q 422 1150 422 2328 
Q 422 3509 836 4129 
Q 1250 4750 2034 4750 
z
" transform="scale(0.015625)"/>
       </defs>
       <use xlink:href="#DejaVuSans-30"/>
      </g>
     </g>
    </g>
    <g id="xtick_2">
     <g id="line2d_2">
      <g>
       <use xlink:href="#m4adfc15395" x="246.615293" y="307.584" style="stroke: #000000; stroke-width: 0.8"/>
      </g>
     </g>
     <g id="text_2">
      <!-- 5 -->
      <g transform="translate(243.434043 322.182437) scale(0.1 -0.1)">
       <defs>
        <path id="DejaVuSans-35" d="M 691 4666 
L 3169 4666 
L 3169 4134 
L 1269 4134 
L 1269 2991 
Q 1406 3038 1543 3061 
Q 1681 3084 1819 3084 
Q 2600 3084 3056 2656 
Q 3513 2228 3513 1497 
Q 3513 744 3044 326 
Q 2575 -91 1722 -91 
Q 1428 -91 1123 -41 
Q 819 9 494 109 
L 494 744 
Q 775 591 1075 516 
Q 1375 441 1709 441 
Q 2250 441 2565 725 
Q 2881 1009 2881 1497 
Q 2881 1984 2565 2268 
Q 2250 2553 1709 2553 
Q 1456 2553 1204 2497 
Q 953 2441 691 2322 
L 691 4666 
z
" transform="scale(0.015625)"/>
       </defs>
       <use xlink:href="#DejaVuSans-35"/>
      </g>
     </g>
    </g>
    <g id="xtick_3">
     <g id="line2d_3">
      <g>
       <use xlink:href="#m4adfc15395" x="288.436463" y="307.584" style="stroke: #000000; stroke-width: 0.8"/>
      </g>
     </g>
     <g id="text_3">
      <!-- 10 -->
      <g transform="translate(282.073963 322.182437) scale(0.1 -0.1)">
       <defs>
        <path id="DejaVuSans-31" d="M 794 531 
L 1825 531 
L 1825 4091 
L 703 3866 
L 703 4441 
L 1819 4666 
L 2450 4666 
L 2450 531 
L 3481 531 
L 3481 0 
L 794 0 
L 794 531 
z
" transform="scale(0.015625)"/>
       </defs>
       <use xlink:href="#DejaVuSans-31"/>
       <use xlink:href="#DejaVuSans-30" transform="translate(63.623047 0)"/>
      </g>
     </g>
    </g>
   </g>
   <g id="matplotlib.axis_2">
    <g id="ytick_1">
     <g id="line2d_4">
      <defs>
       <path id="mcf09e5217f" d="M 0 0 
L -3.5 0 
" style="stroke: #000000; stroke-width: 0.8"/>
      </defs>
      <g>
       <use xlink:href="#mcf09e5217f" x="173.135496" y="294.631926" style="stroke: #000000; stroke-width: 0.8"/>
      </g>
     </g>
     <g id="text_4">
      <!-- 0 -->
      <g transform="translate(159.772996 298.431145) scale(0.1 -0.1)">
       <use xlink:href="#DejaVuSans-30"/>
      </g>
     </g>
    </g>
    <g id="ytick_2">
     <g id="line2d_5">
      <g>
       <use xlink:href="#mcf09e5217f" x="173.135496" y="251.828221" style="stroke: #000000; stroke-width: 0.8"/>
      </g>
     </g>
     <g id="text_5">
      <!-- 5 -->
      <g transform="translate(159.772996 255.62744) scale(0.1 -0.1)">
       <use xlink:href="#DejaVuSans-35"/>
      </g>
     </g>
    </g>
    <g id="ytick_3">
     <g id="line2d_6">
      <g>
       <use xlink:href="#mcf09e5217f" x="173.135496" y="209.024516" style="stroke: #000000; stroke-width: 0.8"/>
      </g>
     </g>
     <g id="text_6">
      <!-- 10 -->
      <g transform="translate(153.410496 212.823734) scale(0.1 -0.1)">
       <use xlink:href="#DejaVuSans-31"/>
       <use xlink:href="#DejaVuSans-30" transform="translate(63.623047 0)"/>
      </g>
     </g>
    </g>
    <g id="ytick_4">
     <g id="line2d_7">
      <g>
       <use xlink:href="#mcf09e5217f" x="173.135496" y="166.220811" style="stroke: #000000; stroke-width: 0.8"/>
      </g>
     </g>
     <g id="text_7">
      <!-- 15 -->
      <g transform="translate(153.410496 170.020029) scale(0.1 -0.1)">
       <use xlink:href="#DejaVuSans-31"/>
       <use xlink:href="#DejaVuSans-35" transform="translate(63.623047 0)"/>
      </g>
     </g>
    </g>
    <g id="ytick_5">
     <g id="line2d_8">
      <g>
       <use xlink:href="#mcf09e5217f" x="173.135496" y="123.417105" style="stroke: #000000; stroke-width: 0.8"/>
      </g>
     </g>
     <g id="text_8">
      <!-- 20 -->
      <g transform="translate(153.410496 127.216324) scale(0.1 -0.1)">
       <defs>
        <path id="DejaVuSans-32" d="M 1228 531 
L 3431 531 
L 3431 0 
L 469 0 
L 469 531 
Q 828 903 1448 1529 
Q 2069 2156 2228 2338 
Q 2531 2678 2651 2914 
Q 2772 3150 2772 3378 
Q 2772 3750 2511 3984 
Q 2250 4219 1831 4219 
Q 1534 4219 1204 4116 
Q 875 4013 500 3803 
L 500 4441 
Q 881 4594 1212 4672 
Q 1544 4750 1819 4750 
Q 2544 4750 2975 4387 
Q 3406 4025 3406 3419 
Q 3406 3131 3298 2873 
Q 3191 2616 2906 2266 
Q 2828 2175 2409 1742 
Q 1991 1309 1228 531 
z
" transform="scale(0.015625)"/>
       </defs>
       <use xlink:href="#DejaVuSans-32"/>
       <use xlink:href="#DejaVuSans-30" transform="translate(63.623047 0)"/>
      </g>
     </g>
    </g>
    <g id="ytick_6">
     <g id="line2d_9">
      <g>
       <use xlink:href="#mcf09e5217f" x="173.135496" y="80.6134" style="stroke: #000000; stroke-width: 0.8"/>
      </g>
     </g>
     <g id="text_9">
      <!-- 25 -->
      <g transform="translate(153.410496 84.412619) scale(0.1 -0.1)">
       <use xlink:href="#DejaVuSans-32"/>
       <use xlink:href="#DejaVuSans-35" transform="translate(63.623047 0)"/>
      </g>
     </g>
    </g>
   </g>
   <g id="patch_3">
    <path d="M 173.135496 307.584 
L 173.135496 41.472 
" style="fill: none; stroke: #000000; stroke-width: 0.8; stroke-linejoin: miter; stroke-linecap: square"/>
   </g>
   <g id="patch_4">
    <path d="M 299.184504 307.584 
L 299.184504 41.472 
" style="fill: none; stroke: #000000; stroke-width: 0.8; stroke-linejoin: miter; stroke-linecap: square"/>
   </g>
   <g id="patch_5">
    <path d="M 173.135496 307.584 
L 299.184504 307.584 
" style="fill: none; stroke: #000000; stroke-width: 0.8; stroke-linejoin: miter; stroke-linecap: square"/>
   </g>
   <g id="patch_6">
    <path d="M 173.135496 41.472 
L 299.184504 41.472 
" style="fill: none; stroke: #000000; stroke-width: 0.8; stroke-linejoin: miter; stroke-linecap: square"/>
   </g>
   <g id="PatchCollection_1">
    <path d="M 204.794122 83.181623 
L 204.794122 84.893771 
L 265.853031 84.893771 
L 265.853031 83.181623 
L 204.794122 83.181623 
" clip-path="url(#p011c65858c)" style="fill: #1f77b4"/>
    <path d="M 265.853031 178.205848 
L 265.853031 176.4937 
L 204.794122 176.4937 
L 204.794122 178.205848 
L 265.853031 178.205848 
" clip-path="url(#p011c65858c)" style="fill: #1f77b4"/>
    <path d="M 204.794122 200.463775 
L 204.794122 202.175923 
L 265.853031 202.175923 
L 265.853031 200.463775 
L 204.794122 200.463775 
" clip-path="url(#p011c65858c)" style="fill: #1f77b4"/>
    <path d="M 205.525993 200.463775 
L 205.735098 200.463775 
L 205.735098 178.205848 
L 205.525993 178.205848 
L 205.525993 200.463775 
" clip-path="url(#p011c65858c)" style="fill: #1f77b4"/>
    <path d="M 203.957699 129.495232 
L 205.630545 129.495232 
L 205.630545 84.037697 
L 203.957699 84.037697 
L 203.957699 129.495232 
" clip-path="url(#p011c65858c)" style="fill: #1f77b4"/>
    <path d="M 225.202853 249.174391 
L 226.8757 249.174391 
L 226.8757 221.43759 
L 225.202853 221.43759 
L 225.202853 249.174391 
" clip-path="url(#p011c65858c)" style="fill: #1f77b4"/>
    <path d="M 226.039277 222.293664 
L 226.039277 220.581516 
L 204.794122 220.581516 
L 204.794122 222.293664 
L 226.039277 222.293664 
" clip-path="url(#p011c65858c)" style="fill: #1f77b4"/>
    <path d="M 226.039277 158.088107 
L 226.039277 156.375958 
L 204.794122 156.375958 
L 204.794122 158.088107 
L 226.039277 158.088107 
" clip-path="url(#p011c65858c)" style="fill: #1f77b4"/>
    <path d="M 226.8757 129.495232 
L 225.202853 129.495232 
L 225.202853 157.232033 
L 226.8757 157.232033 
L 226.8757 129.495232 
" clip-path="url(#p011c65858c)" style="fill: #1f77b4"/>
    <path d="M 205.630545 201.319849 
L 203.957699 201.319849 
L 203.957699 221.43759 
L 205.630545 221.43759 
L 205.630545 201.319849 
" clip-path="url(#p011c65858c)" style="fill: #1f77b4"/>
    <path d="M 205.630545 249.174391 
L 203.957699 249.174391 
L 203.957699 294.631926 
L 205.630545 294.631926 
L 205.630545 249.174391 
" clip-path="url(#p011c65858c)" style="fill: #1f77b4"/>
    <path d="M 265.853031 295.488 
L 265.853031 293.775852 
L 204.794122 293.775852 
L 204.794122 295.488 
L 265.853031 295.488 
" clip-path="url(#p011c65858c)" style="fill: #1f77b4"/>
    <path d="M 265.016608 294.631926 
L 266.689455 294.631926 
L 266.689455 201.319849 
L 265.016608 201.319849 
L 265.016608 294.631926 
" clip-path="url(#p011c65858c)" style="fill: #1f77b4"/>
    <path d="M 265.016608 177.349774 
L 266.689455 177.349774 
L 266.689455 84.037697 
L 265.016608 84.037697 
L 265.016608 177.349774 
" clip-path="url(#p011c65858c)" style="fill: #1f77b4"/>
    <path d="M 204.794122 271.432318 
L 204.794122 272.03157 
L 230.09593 272.03157 
L 230.09593 271.432318 
L 204.794122 271.432318 
" clip-path="url(#p011c65858c)" style="fill: #1f77b4"/>
    <path d="M 205.630545 157.232033 
L 203.957699 157.232033 
L 203.957699 177.349774 
L 205.630545 177.349774 
L 205.630545 157.232033 
" clip-path="url(#p011c65858c)" style="fill: #1f77b4"/>
    <path d="M 241.429468 268.050825 
L 240.843971 268.050825 
L 240.843971 294.631926 
L 241.429468 294.631926 
L 241.429468 268.050825 
" clip-path="url(#p011c65858c)" style="fill: #1f77b4"/>
    <path d="M 241.136719 256.665039 
L 241.136719 257.264291 
L 265.853031 257.264291 
L 265.853031 256.665039 
L 241.136719 256.665039 
" clip-path="url(#p011c65858c)" style="fill: #1f77b4"/>
    <path d="M 204.794122 248.318317 
L 204.794122 250.030465 
L 226.039277 250.030465 
L 226.039277 248.318317 
L 204.794122 248.318317 
" clip-path="url(#p011c65858c)" style="fill: #1f77b4"/>
    <path d="M 226.039277 249.431213 
L 226.039277 250.030465 
L 241.136719 250.030465 
L 241.136719 249.431213 
L 226.039277 249.431213 
" clip-path="url(#p011c65858c)" style="fill: #1f77b4"/>
    <path d="M 236.410927 278.922966 
L 235.825431 278.922966 
L 235.825431 294.631926 
L 236.410927 294.631926 
L 236.410927 278.922966 
" clip-path="url(#p011c65858c)" style="fill: #1f77b4"/>
    <path d="M 204.794122 128.639158 
L 204.794122 130.351306 
L 226.039277 130.351306 
L 226.039277 128.639158 
L 204.794122 128.639158 
" clip-path="url(#p011c65858c)" style="fill: #1f77b4"/>
    <path d="M 204.794122 106.638053 
L 204.794122 107.237305 
L 230.09593 107.237305 
L 230.09593 106.638053 
L 204.794122 106.638053 
" clip-path="url(#p011c65858c)" style="fill: #1f77b4"/>
    <path d="M 240.843971 110.618798 
L 241.429468 110.618798 
L 241.429468 84.037697 
L 240.843971 84.037697 
L 240.843971 110.618798 
" clip-path="url(#p011c65858c)" style="fill: #1f77b4"/>
    <path d="M 226.039277 128.639158 
L 226.039277 129.238409 
L 241.136719 129.238409 
L 241.136719 128.639158 
L 226.039277 128.639158 
" clip-path="url(#p011c65858c)" style="fill: #1f77b4"/>
    <path d="M 204.794122 295.488 
L 204.794122 293.775852 
L 178.864996 293.775852 
L 178.864996 295.488 
L 204.794122 295.488 
" clip-path="url(#p011c65858c)" style="fill: #1f77b4"/>
    <path d="M 265.853031 293.775852 
L 265.853031 295.488 
L 292.61858 295.488 
L 292.61858 293.775852 
L 265.853031 293.775852 
" clip-path="url(#p011c65858c)" style="fill: #1f77b4"/>
    <path d="M 291.782157 294.631926 
L 293.455004 294.631926 
L 293.455004 203.897735 
L 291.782157 203.897735 
L 291.782157 294.631926 
" clip-path="url(#p011c65858c)" style="fill: #1f77b4"/>
    <path d="M 291.782157 193.615182 
L 293.455004 193.615182 
L 293.455004 177.349774 
L 291.782157 177.349774 
L 291.782157 193.615182 
" clip-path="url(#p011c65858c)" style="fill: #1f77b4"/>
    <path d="M 291.782157 177.349774 
L 293.455004 177.349774 
L 293.455004 53.568 
L 291.782157 53.568 
L 291.782157 177.349774 
" clip-path="url(#p011c65858c)" style="fill: #1f77b4"/>
    <path d="M 247.786285 201.319849 
L 247.284431 201.319849 
L 247.284431 204.91536 
L 247.786285 204.91536 
L 247.786285 201.319849 
" clip-path="url(#p011c65858c)" style="fill: #1f77b4"/>
    <path d="M 247.535358 204.658538 
L 247.535358 205.172182 
L 249.960986 205.172182 
L 249.960986 204.658538 
L 247.535358 204.658538 
" clip-path="url(#p011c65858c)" style="fill: #1f77b4"/>
    <path d="M 250.211913 204.91536 
L 249.710059 204.91536 
L 249.710059 207.911619 
L 250.211913 207.911619 
L 250.211913 204.91536 
" clip-path="url(#p011c65858c)" style="fill: #1f77b4"/>
    <path d="M 249.960986 208.168442 
L 249.960986 207.654797 
L 247.535358 207.654797 
L 247.535358 208.168442 
L 249.960986 208.168442 
" clip-path="url(#p011c65858c)" style="fill: #1f77b4"/>
    <path d="M 247.284431 207.911619 
L 247.786285 207.911619 
L 247.786285 204.91536 
L 247.284431 204.91536 
L 247.284431 207.911619 
" clip-path="url(#p011c65858c)" style="fill: #1f77b4"/>
    <path d="M 249.960986 207.56919 
L 249.960986 208.168442 
L 252.470257 208.168442 
L 252.470257 207.56919 
L 249.960986 207.56919 
" clip-path="url(#p011c65858c)" style="fill: #1f77b4"/>
    <path d="M 249.710059 204.91536 
L 250.211913 204.91536 
L 250.211913 201.319849 
L 249.710059 201.319849 
L 249.710059 204.91536 
" clip-path="url(#p011c65858c)" style="fill: #1f77b4"/>
    <path d="M 217.633221 269.72017 
L 217.633221 269.206525 
L 215.458521 269.206525 
L 215.458521 269.72017 
L 217.633221 269.72017 
" clip-path="url(#p011c65858c)" style="fill: #1f77b4"/>
    <path d="M 204.794122 217.927686 
L 204.794122 218.441331 
L 210.398159 218.441331 
L 210.398159 217.927686 
L 204.794122 217.927686 
" clip-path="url(#p011c65858c)" style="fill: #1f77b4"/>
    <path d="M 210.649086 218.184509 
L 210.147232 218.184509 
L 210.147232 221.43759 
L 210.649086 221.43759 
L 210.649086 218.184509 
" clip-path="url(#p011c65858c)" style="fill: #1f77b4"/>
    <path d="M 241.136719 279.222592 
L 241.136719 278.62334 
L 236.118179 278.62334 
L 236.118179 279.222592 
L 241.136719 279.222592 
" clip-path="url(#p011c65858c)" style="fill: #1f77b4"/>
    <path d="M 217.884148 269.463347 
L 217.382294 269.463347 
L 217.382294 271.731944 
L 217.884148 271.731944 
L 217.884148 269.463347 
" clip-path="url(#p011c65858c)" style="fill: #1f77b4"/>
    <path d="M 241.136719 268.350451 
L 241.136719 267.751199 
L 230.09593 267.751199 
L 230.09593 268.350451 
L 241.136719 268.350451 
" clip-path="url(#p011c65858c)" style="fill: #1f77b4"/>
    <path d="M 241.429468 110.618798 
L 240.843971 110.618798 
L 240.843971 128.938783 
L 241.429468 128.938783 
L 241.429468 110.618798 
" clip-path="url(#p011c65858c)" style="fill: #1f77b4"/>
    <path d="M 230.09593 110.319172 
L 230.09593 110.918424 
L 241.136719 110.918424 
L 241.136719 110.319172 
L 230.09593 110.319172 
" clip-path="url(#p011c65858c)" style="fill: #1f77b4"/>
    <path d="M 235.825431 99.746657 
L 236.410927 99.746657 
L 236.410927 84.037697 
L 235.825431 84.037697 
L 235.825431 99.746657 
" clip-path="url(#p011c65858c)" style="fill: #1f77b4"/>
    <path d="M 241.136719 100.046282 
L 241.136719 99.447031 
L 236.118179 99.447031 
L 236.118179 100.046282 
L 241.136719 100.046282 
" clip-path="url(#p011c65858c)" style="fill: #1f77b4"/>
    <path d="M 241.136719 121.405331 
L 241.136719 122.004583 
L 265.853031 122.004583 
L 265.853031 121.405331 
L 241.136719 121.405331 
" clip-path="url(#p011c65858c)" style="fill: #1f77b4"/>
    <path d="M 204.794122 160.228292 
L 204.794122 160.741936 
L 210.398159 160.741936 
L 210.398159 160.228292 
L 204.794122 160.228292 
" clip-path="url(#p011c65858c)" style="fill: #1f77b4"/>
    <path d="M 210.147232 160.485114 
L 210.649086 160.485114 
L 210.649086 157.232033 
L 210.147232 157.232033 
L 210.147232 160.485114 
" clip-path="url(#p011c65858c)" style="fill: #1f77b4"/>
    <path d="M 247.284431 177.349774 
L 247.786285 177.349774 
L 247.786285 173.754263 
L 247.284431 173.754263 
L 247.284431 177.349774 
" clip-path="url(#p011c65858c)" style="fill: #1f77b4"/>
    <path d="M 247.535358 173.49744 
L 247.535358 174.011085 
L 249.960986 174.011085 
L 249.960986 173.49744 
L 247.535358 173.49744 
" clip-path="url(#p011c65858c)" style="fill: #1f77b4"/>
    <path d="M 249.710059 173.754263 
L 250.211913 173.754263 
L 250.211913 170.758003 
L 249.710059 170.758003 
L 249.710059 173.754263 
" clip-path="url(#p011c65858c)" style="fill: #1f77b4"/>
    <path d="M 249.960986 171.014826 
L 249.960986 170.501181 
L 247.535358 170.501181 
L 247.535358 171.014826 
L 249.960986 171.014826 
" clip-path="url(#p011c65858c)" style="fill: #1f77b4"/>
    <path d="M 247.786285 170.758003 
L 247.284431 170.758003 
L 247.284431 173.754263 
L 247.786285 173.754263 
L 247.786285 170.758003 
" clip-path="url(#p011c65858c)" style="fill: #1f77b4"/>
    <path d="M 249.960986 170.501181 
L 249.960986 171.100433 
L 252.470257 171.100433 
L 252.470257 170.501181 
L 249.960986 170.501181 
" clip-path="url(#p011c65858c)" style="fill: #1f77b4"/>
    <path d="M 250.211913 173.754263 
L 249.710059 173.754263 
L 249.710059 177.349774 
L 250.211913 177.349774 
L 250.211913 173.754263 
" clip-path="url(#p011c65858c)" style="fill: #1f77b4"/>
    <path d="M 265.853031 176.4937 
L 265.853031 178.205848 
L 292.61858 178.205848 
L 292.61858 176.4937 
L 265.853031 176.4937 
" clip-path="url(#p011c65858c)" style="fill: #1f77b4"/>
    <path d="M 230.09593 120.934491 
L 230.09593 120.335239 
L 218.678751 120.335239 
L 218.678751 120.934491 
L 230.09593 120.934491 
" clip-path="url(#p011c65858c)" style="fill: #1f77b4"/>
    <path d="M 241.136719 126.498972 
L 241.136719 127.098224 
L 265.853031 127.098224 
L 265.853031 126.498972 
L 241.136719 126.498972 
" clip-path="url(#p011c65858c)" style="fill: #1f77b4"/>
    <path d="M 229.803182 128.938783 
L 230.388678 128.938783 
L 230.388678 110.918424 
L 229.803182 110.918424 
L 229.803182 128.938783 
" clip-path="url(#p011c65858c)" style="fill: #1f77b4"/>
    <path d="M 217.173189 120.592061 
L 216.671334 120.592061 
L 216.671334 129.495232 
L 217.173189 129.495232 
L 217.173189 120.592061 
" clip-path="url(#p011c65858c)" style="fill: #1f77b4"/>
    <path d="M 218.929678 120.592061 
L 218.427824 120.592061 
L 218.427824 129.495232 
L 218.929678 129.495232 
L 218.929678 120.592061 
" clip-path="url(#p011c65858c)" style="fill: #1f77b4"/>
    <path d="M 218.678751 120.848883 
L 218.678751 120.335239 
L 216.922262 120.335239 
L 216.922262 120.848883 
L 218.678751 120.848883 
" clip-path="url(#p011c65858c)" style="fill: #1f77b4"/>
    <path d="M 217.633221 109.463098 
L 217.633221 108.949453 
L 215.458521 108.949453 
L 215.458521 109.463098 
L 217.633221 109.463098 
" clip-path="url(#p011c65858c)" style="fill: #1f77b4"/>
    <path d="M 217.382294 109.206275 
L 217.884148 109.206275 
L 217.884148 106.937679 
L 217.382294 106.937679 
L 217.382294 109.206275 
" clip-path="url(#p011c65858c)" style="fill: #1f77b4"/>
    <path d="M 241.136719 251.571399 
L 241.136719 252.17065 
L 265.853031 252.17065 
L 265.853031 251.571399 
L 241.136719 251.571399 
" clip-path="url(#p011c65858c)" style="fill: #1f77b4"/>
    <path d="M 230.388678 249.730839 
L 229.803182 249.730839 
L 229.803182 271.731944 
L 230.388678 271.731944 
L 230.388678 249.730839 
" clip-path="url(#p011c65858c)" style="fill: #1f77b4"/>
    <path d="M 240.843971 268.050825 
L 241.429468 268.050825 
L 241.429468 249.730839 
L 240.843971 249.730839 
L 240.843971 268.050825 
" clip-path="url(#p011c65858c)" style="fill: #1f77b4"/>
    <path d="M 216.922262 257.82074 
L 216.922262 258.334384 
L 218.678751 258.334384 
L 218.678751 257.82074 
L 216.922262 257.82074 
" clip-path="url(#p011c65858c)" style="fill: #1f77b4"/>
    <path d="M 218.678751 257.735132 
L 218.678751 258.334384 
L 230.09593 258.334384 
L 230.09593 257.735132 
L 218.678751 257.735132 
" clip-path="url(#p011c65858c)" style="fill: #1f77b4"/>
    <path d="M 218.427824 258.077562 
L 218.929678 258.077562 
L 218.929678 249.174391 
L 218.427824 249.174391 
L 218.427824 258.077562 
" clip-path="url(#p011c65858c)" style="fill: #1f77b4"/>
    <path d="M 217.173189 249.174391 
L 216.671334 249.174391 
L 216.671334 258.077562 
L 217.173189 258.077562 
L 217.173189 249.174391 
" clip-path="url(#p011c65858c)" style="fill: #1f77b4"/>
    <path d="M 229.803182 110.618798 
L 230.388678 110.618798 
L 230.388678 106.937679 
L 229.803182 106.937679 
L 229.803182 110.618798 
" clip-path="url(#p011c65858c)" style="fill: #1f77b4"/>
    <path d="M 215.709448 269.463347 
L 215.207594 269.463347 
L 215.207594 271.731944 
L 215.709448 271.731944 
L 215.709448 269.463347 
" clip-path="url(#p011c65858c)" style="fill: #1f77b4"/>
    <path d="M 215.207594 109.206275 
L 215.709448 109.206275 
L 215.709448 106.937679 
L 215.207594 106.937679 
L 215.207594 109.206275 
" clip-path="url(#p011c65858c)" style="fill: #1f77b4"/>
    <path d="M 265.685746 167.333707 
L 265.685746 167.419314 
L 266.689455 167.419314 
L 266.689455 167.333707 
L 265.685746 167.333707 
" clip-path="url(#p011c65858c)" style="fill: #1f77b4"/>
    <path d="M 265.685746 152.866055 
L 265.685746 152.951662 
L 266.689455 152.951662 
L 266.689455 152.866055 
L 265.685746 152.866055 
" clip-path="url(#p011c65858c)" style="fill: #1f77b4"/>
    <path d="M 265.685746 225.717961 
L 265.685746 225.803568 
L 266.689455 225.803568 
L 266.689455 225.717961 
L 265.685746 225.717961 
" clip-path="url(#p011c65858c)" style="fill: #1f77b4"/>
    <path d="M 265.685746 211.250308 
L 265.685746 211.335916 
L 266.689455 211.335916 
L 266.689455 211.250308 
L 265.685746 211.250308 
" clip-path="url(#p011c65858c)" style="fill: #1f77b4"/>
    <path d="M 265.685746 284.615859 
L 265.685746 284.701466 
L 266.689455 284.701466 
L 266.689455 284.615859 
L 265.685746 284.615859 
" clip-path="url(#p011c65858c)" style="fill: #1f77b4"/>
    <path d="M 265.685746 270.148207 
L 265.685746 270.233814 
L 266.689455 270.233814 
L 266.689455 270.148207 
L 265.685746 270.148207 
" clip-path="url(#p011c65858c)" style="fill: #1f77b4"/>
    <path d="M 204.961407 290.180341 
L 204.961407 290.094733 
L 203.957699 290.094733 
L 203.957699 290.180341 
L 204.961407 290.180341 
" clip-path="url(#p011c65858c)" style="fill: #1f77b4"/>
    <path d="M 204.961407 275.712688 
L 204.961407 275.627081 
L 203.957699 275.627081 
L 203.957699 275.712688 
L 204.961407 275.712688 
" clip-path="url(#p011c65858c)" style="fill: #1f77b4"/>
    <path d="M 265.685746 108.435809 
L 265.685746 108.521416 
L 266.689455 108.521416 
L 266.689455 108.435809 
L 265.685746 108.435809 
" clip-path="url(#p011c65858c)" style="fill: #1f77b4"/>
    <path d="M 265.685746 93.968156 
L 265.685746 94.053764 
L 266.689455 94.053764 
L 266.689455 93.968156 
L 265.685746 93.968156 
" clip-path="url(#p011c65858c)" style="fill: #1f77b4"/>
    <path d="M 204.961407 103.042542 
L 204.961407 102.956934 
L 203.957699 102.956934 
L 203.957699 103.042542 
L 204.961407 103.042542 
" clip-path="url(#p011c65858c)" style="fill: #1f77b4"/>
    <path d="M 204.961407 88.57489 
L 204.961407 88.489282 
L 203.957699 88.489282 
L 203.957699 88.57489 
L 204.961407 88.57489 
" clip-path="url(#p011c65858c)" style="fill: #1f77b4"/>
   </g>
   <g id="PatchCollection_2">
    <path d="M 205.630545 202.175923 
L 205.630545 217.927686 
L 210.649086 217.927686 
L 210.649086 220.581516 
L 226.8757 220.581516 
L 226.8757 249.431213 
L 230.09593 249.431213 
L 241.429468 249.431213 
L 241.429468 251.571399 
L 265.016608 251.571399 
L 265.016608 202.175923 
L 250.211913 202.175923 
L 250.211913 204.91536 
L 250.211913 207.56919 
L 252.470257 207.56919 
L 252.470257 208.168442 
L 249.960986 208.168442 
L 247.284431 208.168442 
L 247.284431 204.91536 
L 247.284431 202.175923 
L 239.077191 202.175923 
L 236.772516 202.175923 
L 205.630545 202.175923 
" clip-path="url(#p011c65858c)" style="fill: #ff0000; fill-opacity: 0.8"/>
    <path d="M 205.630545 272.03157 
L 205.630545 293.775852 
L 240.843971 293.775852 
L 240.843971 279.222592 
L 236.118179 279.222592 
L 236.118179 278.62334 
L 240.843971 278.62334 
L 240.843971 268.350451 
L 230.388678 268.350451 
L 230.388678 272.03157 
L 217.633221 272.03157 
L 215.458521 272.03157 
L 205.630545 272.03157 
" clip-path="url(#p011c65858c)" style="fill: #ff0000; fill-opacity: 0.8"/>
    <path d="M 241.429468 293.775852 
L 265.016608 293.775852 
L 265.016608 252.17065 
L 241.429468 252.17065 
L 241.429468 268.050825 
L 241.429468 278.922966 
L 241.429468 293.775852 
" clip-path="url(#p011c65858c)" style="fill: #ff0000; fill-opacity: 0.8"/>
    <path d="M 240.843971 250.030465 
L 230.388678 250.030465 
L 230.388678 258.034758 
L 230.388678 267.751199 
L 240.843971 267.751199 
L 240.843971 251.871024 
L 240.843971 250.030465 
" clip-path="url(#p011c65858c)" style="fill: #ff0000; fill-opacity: 0.8"/>
    <path d="M 205.630545 250.030465 
L 205.630545 271.432318 
L 215.207594 271.432318 
L 215.207594 269.206525 
L 217.884148 269.206525 
L 217.884148 271.432318 
L 229.803182 271.432318 
L 229.803182 268.050825 
L 229.803182 258.334384 
L 218.678751 258.334384 
L 216.671334 258.334384 
L 216.671334 250.030465 
L 205.630545 250.030465 
" clip-path="url(#p011c65858c)" style="fill: #ff0000; fill-opacity: 0.8"/>
    <path d="M 225.202853 248.318317 
L 225.202853 222.293664 
L 210.398159 222.293664 
L 204.961407 222.293664 
L 204.961407 248.318317 
L 216.922262 248.318317 
L 218.678751 248.318317 
L 225.202853 248.318317 
" clip-path="url(#p011c65858c)" style="fill: #ff0000; fill-opacity: 0.8"/>
    <path d="M 250.211913 176.4937 
L 265.016608 176.4937 
L 265.016608 127.098224 
L 241.429468 127.098224 
L 241.429468 129.238409 
L 230.09593 129.238409 
L 226.8757 129.238409 
L 226.8757 158.088107 
L 210.649086 158.088107 
L 210.649086 160.741936 
L 205.630545 160.741936 
L 205.630545 176.4937 
L 237.924853 176.4937 
L 247.284431 176.4937 
L 247.284431 173.754263 
L 247.284431 170.501181 
L 249.960986 170.501181 
L 252.470257 170.501181 
L 252.470257 171.100433 
L 250.211913 171.100433 
L 250.211913 173.754263 
L 250.211913 176.4937 
" clip-path="url(#p011c65858c)" style="fill: #ff0000; fill-opacity: 0.8"/>
    <path d="M 205.630545 107.237305 
L 205.630545 128.639158 
L 216.671334 128.639158 
L 216.671334 120.335239 
L 218.678751 120.335239 
L 229.803182 120.335239 
L 229.803182 110.93208 
L 229.803182 110.918424 
L 229.803182 110.618798 
L 229.803182 107.237305 
L 217.884148 107.237305 
L 217.884148 109.463098 
L 215.207594 109.463098 
L 215.207594 107.237305 
L 205.630545 107.237305 
" clip-path="url(#p011c65858c)" style="fill: #ff0000; fill-opacity: 0.8"/>
    <path d="M 265.016608 84.893771 
L 241.429468 84.893771 
L 241.429468 99.746657 
L 241.429468 110.618798 
L 241.429468 126.498972 
L 265.016608 126.498972 
L 265.016608 84.893771 
" clip-path="url(#p011c65858c)" style="fill: #ff0000; fill-opacity: 0.8"/>
    <path d="M 240.843971 84.893771 
L 205.630545 84.893771 
L 205.630545 106.638053 
L 215.458521 106.638053 
L 217.633221 106.638053 
L 230.388678 106.638053 
L 230.388678 110.319172 
L 230.402022 110.319172 
L 240.843971 110.319172 
L 240.843971 100.046282 
L 236.118179 100.046282 
L 236.118179 99.447031 
L 240.843971 99.447031 
L 240.843971 84.893771 
" clip-path="url(#p011c65858c)" style="fill: #ff0000; fill-opacity: 0.8"/>
    <path d="M 230.388678 128.639158 
L 240.843971 128.639158 
L 240.843971 126.798598 
L 240.843971 110.918424 
L 230.388678 110.918424 
L 230.388678 120.634865 
L 230.388678 128.639158 
" clip-path="url(#p011c65858c)" style="fill: #ff0000; fill-opacity: 0.8"/>
    <path d="M 210.398159 156.375958 
L 225.202853 156.375958 
L 225.202853 130.351306 
L 218.678751 130.351306 
L 216.922262 130.351306 
L 204.961407 130.351306 
L 204.961407 156.375958 
L 210.398159 156.375958 
" clip-path="url(#p011c65858c)" style="fill: #ff0000; fill-opacity: 0.8"/>
    <path d="M 265.853031 178.034633 
L 265.853031 178.205848 
L 249.960986 178.205848 
L 247.535358 178.205848 
L 237.924853 178.205848 
L 237.924853 200.463775 
L 247.535358 200.463775 
L 249.960986 200.463775 
L 266.689455 200.463775 
L 266.689455 251.871024 
L 266.689455 293.775852 
L 291.782157 293.775852 
L 291.782157 203.897735 
L 292.61858 203.897735 
L 292.61858 193.615182 
L 291.782157 193.615182 
L 291.782157 178.034633 
L 265.853031 178.034633 
" clip-path="url(#p011c65858c)" style="fill: #ff0000; fill-opacity: 0.8"/>
    <path d="M 237.924853 178.205848 
L 205.630545 178.205848 
L 205.630545 200.463775 
L 237.924853 200.463775 
L 237.924853 178.205848 
" clip-path="url(#p011c65858c)" style="fill: #ff0000; fill-opacity: 0.8"/>
    <path d="M 218.929678 128.639158 
L 226.039277 128.639158 
L 227.319085 128.639158 
L 229.803182 128.639158 
L 229.803182 120.934491 
L 218.929678 120.934491 
L 218.929678 128.639158 
" clip-path="url(#p011c65858c)" style="fill: #ff0000; fill-opacity: 0.8"/>
    <path d="M 226.039277 250.030465 
L 218.929678 250.030465 
L 218.929678 257.735132 
L 229.803182 257.735132 
L 229.803182 250.030465 
L 227.319085 250.030465 
L 226.039277 250.030465 
" clip-path="url(#p011c65858c)" style="fill: #ff0000; fill-opacity: 0.8"/>
   </g>
  </g>
 </g>
 <defs>
  <clipPath id="p011c65858c">
   <rect x="173.135496" y="41.472" width="126.049008" height="266.112"/>
  </clipPath>
 </defs>
</svg>
