<?xml version="1.0" encoding="utf-8" standalone="no"?>
<!DOCTYPE svg PUBLIC "-//W3C//DTD SVG 1.1//EN"
  "http://www.w3.org/Graphics/SVG/1.1/DTD/svg11.dtd">
<svg xmlns:xlink="http://www.w3.org/1999/xlink" width="460.8pt" height="345.6pt" viewBox="0 0 460.8 345.6" xmlns="http://www.w3.org/2000/svg" version="1.1">
 <metadata>
  <rdf:RDF xmlns:dc="http://purl.org/dc/elements/1.1/" xmlns:cc="http://creativecommons.org/ns#" xmlns:rdf="http://www.w3.org/1999/02/22-rdf-syntax-ns#">
   <cc:Work>
    <dc:type rdf:resource="http://purl.org/dc/dcmitype/StillImage"/>
    <dc:date>2025-02-28T09:39:39.726199</dc:date>
    <dc:format>image/svg+xml</dc:format>
    <dc:creator>
     <cc:Agent>
      <dc:title>Matplotlib v3.10.0, https://matplotlib.org/</dc:title>
     </cc:Agent>
    </dc:creator>
   </cc:Work>
  </rdf:RDF>
 </metadata>
 <defs>
  <style type="text/css">*{stroke-linejoin: round; stroke-linecap: butt}</style>
 </defs>
 <g id="figure_1">
  <g id="patch_1">
   <path d="M 0 345.6 
L 460.8 345.6 
L 460.8 0 
L 0 0 
z
" style="fill: #ffffff"/>
  </g>
  <g id="axes_1">
   <g id="patch_2">
    <path d="M 113.043701 307.584 
L 359.276299 307.584 
L 359.276299 41.472 
L 113.043701 41.472 
z
" style="fill: #ffffff"/>
   </g>
   <g id="matplotlib.axis_1">
    <g id="xtick_1">
     <g id="line2d_1">
      <defs>
       <path id="m8ed70be622" d="M 0 0 
L 0 3.5 
" style="stroke: #000000; stroke-width: 0.8"/>
      </defs>
      <g>
       <use xlink:href="#m8ed70be622" x="163.415195" y="307.584" style="stroke: #000000; stroke-width: 0.8"/>
      </g>
     </g>
     <g id="text_1">
      <!-- −40 -->
      <g transform="translate(152.862851 322.182437) scale(0.1 -0.1)">
       <defs>
        <path id="DejaVuSans-2212" d="M 678 2272 
L 4684 2272 
L 4684 1741 
L 678 1741 
L 678 2272 
z
" transform="scale(0.015625)"/>
        <path id="DejaVuSans-34" d="M 2419 4116 
L 825 1625 
L 2419 1625 
L 2419 4116 
z
M 2253 4666 
L 3047 4666 
L 3047 1625 
L 3713 1625 
L 3713 1100 
L 3047 1100 
L 3047 0 
L 2419 0 
L 2419 1100 
L 313 1100 
L 313 1709 
L 2253 4666 
z
" transform="scale(0.015625)"/>
        <path id="DejaVuSans-30" d="M 2034 4250 
Q 1547 4250 1301 3770 
Q 1056 3291 1056 2328 
Q 1056 1369 1301 889 
Q 1547 409 2034 409 
Q 2525 409 2770 889 
Q 3016 1369 3016 2328 
Q 3016 3291 2770 3770 
Q 2525 4250 2034 4250 
z
M 2034 4750 
Q 2819 4750 3233 4129 
Q 3647 3509 3647 2328 
Q 3647 1150 3233 529 
Q 2819 -91 2034 -91 
Q 1250 -91 836 529 
Q 422 1150 422 2328 
Q 422 3509 836 4129 
Q 1250 4750 2034 4750 
z
" transform="scale(0.015625)"/>
       </defs>
       <use xlink:href="#DejaVuSans-2212"/>
       <use xlink:href="#DejaVuSans-34" transform="translate(83.789062 0)"/>
       <use xlink:href="#DejaVuSans-30" transform="translate(147.412109 0)"/>
      </g>
     </g>
    </g>
    <g id="xtick_2">
     <g id="line2d_2">
      <g>
       <use xlink:href="#m8ed70be622" x="215.793185" y="307.584" style="stroke: #000000; stroke-width: 0.8"/>
      </g>
     </g>
     <g id="text_2">
      <!-- −30 -->
      <g transform="translate(205.240842 322.182437) scale(0.1 -0.1)">
       <defs>
        <path id="DejaVuSans-33" d="M 2597 2516 
Q 3050 2419 3304 2112 
Q 3559 1806 3559 1356 
Q 3559 666 3084 287 
Q 2609 -91 1734 -91 
Q 1441 -91 1130 -33 
Q 819 25 488 141 
L 488 750 
Q 750 597 1062 519 
Q 1375 441 1716 441 
Q 2309 441 2620 675 
Q 2931 909 2931 1356 
Q 2931 1769 2642 2001 
Q 2353 2234 1838 2234 
L 1294 2234 
L 1294 2753 
L 1863 2753 
Q 2328 2753 2575 2939 
Q 2822 3125 2822 3475 
Q 2822 3834 2567 4026 
Q 2313 4219 1838 4219 
Q 1578 4219 1281 4162 
Q 984 4106 628 3988 
L 628 4550 
Q 988 4650 1302 4700 
Q 1616 4750 1894 4750 
Q 2613 4750 3031 4423 
Q 3450 4097 3450 3541 
Q 3450 3153 3228 2886 
Q 3006 2619 2597 2516 
z
" transform="scale(0.015625)"/>
       </defs>
       <use xlink:href="#DejaVuSans-2212"/>
       <use xlink:href="#DejaVuSans-33" transform="translate(83.789062 0)"/>
       <use xlink:href="#DejaVuSans-30" transform="translate(147.412109 0)"/>
      </g>
     </g>
    </g>
    <g id="xtick_3">
     <g id="line2d_3">
      <g>
       <use xlink:href="#m8ed70be622" x="268.171176" y="307.584" style="stroke: #000000; stroke-width: 0.8"/>
      </g>
     </g>
     <g id="text_3">
      <!-- −20 -->
      <g transform="translate(257.618832 322.182437) scale(0.1 -0.1)">
       <defs>
        <path id="DejaVuSans-32" d="M 1228 531 
L 3431 531 
L 3431 0 
L 469 0 
L 469 531 
Q 828 903 1448 1529 
Q 2069 2156 2228 2338 
Q 2531 2678 2651 2914 
Q 2772 3150 2772 3378 
Q 2772 3750 2511 3984 
Q 2250 4219 1831 4219 
Q 1534 4219 1204 4116 
Q 875 4013 500 3803 
L 500 4441 
Q 881 4594 1212 4672 
Q 1544 4750 1819 4750 
Q 2544 4750 2975 4387 
Q 3406 4025 3406 3419 
Q 3406 3131 3298 2873 
Q 3191 2616 2906 2266 
Q 2828 2175 2409 1742 
Q 1991 1309 1228 531 
z
" transform="scale(0.015625)"/>
       </defs>
       <use xlink:href="#DejaVuSans-2212"/>
       <use xlink:href="#DejaVuSans-32" transform="translate(83.789062 0)"/>
       <use xlink:href="#DejaVuSans-30" transform="translate(147.412109 0)"/>
      </g>
     </g>
    </g>
    <g id="xtick_4">
     <g id="line2d_4">
      <g>
       <use xlink:href="#m8ed70be622" x="320.549166" y="307.584" style="stroke: #000000; stroke-width: 0.8"/>
      </g>
     </g>
     <g id="text_4">
      <!-- −10 -->
      <g transform="translate(309.996822 322.182437) scale(0.1 -0.1)">
       <defs>
        <path id="DejaVuSans-31" d="M 794 531 
L 1825 531 
L 1825 4091 
L 703 3866 
L 703 4441 
L 1819 4666 
L 2450 4666 
L 2450 531 
L 3481 531 
L 3481 0 
L 794 0 
L 794 531 
z
" transform="scale(0.015625)"/>
       </defs>
       <use xlink:href="#DejaVuSans-2212"/>
       <use xlink:href="#DejaVuSans-31" transform="translate(83.789062 0)"/>
       <use xlink:href="#DejaVuSans-30" transform="translate(147.412109 0)"/>
      </g>
     </g>
    </g>
   </g>
   <g id="matplotlib.axis_2">
    <g id="ytick_1">
     <g id="line2d_5">
      <defs>
       <path id="mea9558438d" d="M 0 0 
L -3.5 0 
" style="stroke: #000000; stroke-width: 0.8"/>
      </defs>
      <g>
       <use xlink:href="#mea9558438d" x="113.043701" y="282.67951" style="stroke: #000000; stroke-width: 0.8"/>
      </g>
     </g>
     <g id="text_5">
      <!-- −45 -->
      <g transform="translate(84.939013 286.478729) scale(0.1 -0.1)">
       <defs>
        <path id="DejaVuSans-35" d="M 691 4666 
L 3169 4666 
L 3169 4134 
L 1269 4134 
L 1269 2991 
Q 1406 3038 1543 3061 
Q 1681 3084 1819 3084 
Q 2600 3084 3056 2656 
Q 3513 2228 3513 1497 
Q 3513 744 3044 326 
Q 2575 -91 1722 -91 
Q 1428 -91 1123 -41 
Q 819 9 494 109 
L 494 744 
Q 775 591 1075 516 
Q 1375 441 1709 441 
Q 2250 441 2565 725 
Q 2881 1009 2881 1497 
Q 2881 1984 2565 2268 
Q 2250 2553 1709 2553 
Q 1456 2553 1204 2497 
Q 953 2441 691 2322 
L 691 4666 
z
" transform="scale(0.015625)"/>
       </defs>
       <use xlink:href="#DejaVuSans-2212"/>
       <use xlink:href="#DejaVuSans-34" transform="translate(83.789062 0)"/>
       <use xlink:href="#DejaVuSans-35" transform="translate(147.412109 0)"/>
      </g>
     </g>
    </g>
    <g id="ytick_2">
     <g id="line2d_6">
      <g>
       <use xlink:href="#mea9558438d" x="113.043701" y="249.547953" style="stroke: #000000; stroke-width: 0.8"/>
      </g>
     </g>
     <g id="text_6">
      <!-- −40 -->
      <g transform="translate(84.939013 253.347172) scale(0.1 -0.1)">
       <use xlink:href="#DejaVuSans-2212"/>
       <use xlink:href="#DejaVuSans-34" transform="translate(83.789062 0)"/>
       <use xlink:href="#DejaVuSans-30" transform="translate(147.412109 0)"/>
      </g>
     </g>
    </g>
    <g id="ytick_3">
     <g id="line2d_7">
      <g>
       <use xlink:href="#mea9558438d" x="113.043701" y="216.416397" style="stroke: #000000; stroke-width: 0.8"/>
      </g>
     </g>
     <g id="text_7">
      <!-- −35 -->
      <g transform="translate(84.939013 220.215616) scale(0.1 -0.1)">
       <use xlink:href="#DejaVuSans-2212"/>
       <use xlink:href="#DejaVuSans-33" transform="translate(83.789062 0)"/>
       <use xlink:href="#DejaVuSans-35" transform="translate(147.412109 0)"/>
      </g>
     </g>
    </g>
    <g id="ytick_4">
     <g id="line2d_8">
      <g>
       <use xlink:href="#mea9558438d" x="113.043701" y="183.28484" style="stroke: #000000; stroke-width: 0.8"/>
      </g>
     </g>
     <g id="text_8">
      <!-- −30 -->
      <g transform="translate(84.939013 187.084059) scale(0.1 -0.1)">
       <use xlink:href="#DejaVuSans-2212"/>
       <use xlink:href="#DejaVuSans-33" transform="translate(83.789062 0)"/>
       <use xlink:href="#DejaVuSans-30" transform="translate(147.412109 0)"/>
      </g>
     </g>
    </g>
    <g id="ytick_5">
     <g id="line2d_9">
      <g>
       <use xlink:href="#mea9558438d" x="113.043701" y="150.153284" style="stroke: #000000; stroke-width: 0.8"/>
      </g>
     </g>
     <g id="text_9">
      <!-- −25 -->
      <g transform="translate(84.939013 153.952502) scale(0.1 -0.1)">
       <use xlink:href="#DejaVuSans-2212"/>
       <use xlink:href="#DejaVuSans-32" transform="translate(83.789062 0)"/>
       <use xlink:href="#DejaVuSans-35" transform="translate(147.412109 0)"/>
      </g>
     </g>
    </g>
    <g id="ytick_6">
     <g id="line2d_10">
      <g>
       <use xlink:href="#mea9558438d" x="113.043701" y="117.021727" style="stroke: #000000; stroke-width: 0.8"/>
      </g>
     </g>
     <g id="text_10">
      <!-- −20 -->
      <g transform="translate(84.939013 120.820946) scale(0.1 -0.1)">
       <use xlink:href="#DejaVuSans-2212"/>
       <use xlink:href="#DejaVuSans-32" transform="translate(83.789062 0)"/>
       <use xlink:href="#DejaVuSans-30" transform="translate(147.412109 0)"/>
      </g>
     </g>
    </g>
    <g id="ytick_7">
     <g id="line2d_11">
      <g>
       <use xlink:href="#mea9558438d" x="113.043701" y="83.89017" style="stroke: #000000; stroke-width: 0.8"/>
      </g>
     </g>
     <g id="text_11">
      <!-- −15 -->
      <g transform="translate(84.939013 87.689389) scale(0.1 -0.1)">
       <use xlink:href="#DejaVuSans-2212"/>
       <use xlink:href="#DejaVuSans-31" transform="translate(83.789062 0)"/>
       <use xlink:href="#DejaVuSans-35" transform="translate(147.412109 0)"/>
      </g>
     </g>
    </g>
    <g id="ytick_8">
     <g id="line2d_12">
      <g>
       <use xlink:href="#mea9558438d" x="113.043701" y="50.758614" style="stroke: #000000; stroke-width: 0.8"/>
      </g>
     </g>
     <g id="text_12">
      <!-- −10 -->
      <g transform="translate(84.939013 54.557833) scale(0.1 -0.1)">
       <use xlink:href="#DejaVuSans-2212"/>
       <use xlink:href="#DejaVuSans-31" transform="translate(83.789062 0)"/>
       <use xlink:href="#DejaVuSans-30" transform="translate(147.412109 0)"/>
      </g>
     </g>
    </g>
   </g>
   <g id="patch_3">
    <path d="M 113.043701 307.584 
L 113.043701 41.472 
" style="fill: none; stroke: #000000; stroke-width: 0.8; stroke-linejoin: miter; stroke-linecap: square"/>
   </g>
   <g id="patch_4">
    <path d="M 359.276299 307.584 
L 359.276299 41.472 
" style="fill: none; stroke: #000000; stroke-width: 0.8; stroke-linejoin: miter; stroke-linecap: square"/>
   </g>
   <g id="patch_5">
    <path d="M 113.043701 307.584 
L 359.276299 307.584 
" style="fill: none; stroke: #000000; stroke-width: 0.8; stroke-linejoin: miter; stroke-linecap: square"/>
   </g>
   <g id="patch_6">
    <path d="M 113.043701 41.472 
L 359.276299 41.472 
" style="fill: none; stroke: #000000; stroke-width: 0.8; stroke-linejoin: miter; stroke-linecap: square"/>
   </g>
   <g id="PatchCollection_1">
    <path d="M 124.90653 253.245265 
L 124.90653 254.252465 
L 162.618683 254.252465 
L 162.618683 253.245265 
L 124.90653 253.245265 
" clip-path="url(#p2e639ea23b)" style="fill: #1f77b4"/>
    <path d="M 163.016756 253.748865 
L 162.22061 253.748865 
L 162.22061 294.633206 
L 163.016756 294.633206 
L 163.016756 253.748865 
" clip-path="url(#p2e639ea23b)" style="fill: #1f77b4"/>
    <path d="M 209.920198 257.508426 
L 209.920198 256.647005 
L 162.618683 256.647005 
L 162.618683 257.508426 
L 209.920198 257.508426 
" clip-path="url(#p2e639ea23b)" style="fill: #1f77b4"/>
    <path d="M 271.826792 294.633206 
L 272.612462 294.633206 
L 272.612462 256.647005 
L 271.826792 256.647005 
L 271.826792 294.633206 
" clip-path="url(#p2e639ea23b)" style="fill: #1f77b4"/>
    <path d="M 272.219627 256.647005 
L 272.219627 257.309637 
L 327.539689 257.309637 
L 327.539689 256.647005 
L 272.219627 256.647005 
" clip-path="url(#p2e639ea23b)" style="fill: #1f77b4"/>
    <path d="M 209.920198 256.647005 
L 209.920198 257.309637 
L 228.287588 257.309637 
L 228.287588 256.647005 
L 209.920198 256.647005 
" clip-path="url(#p2e639ea23b)" style="fill: #1f77b4"/>
    <path d="M 124.90653 173.729529 
L 124.90653 174.736729 
L 347.408232 174.736729 
L 347.408232 173.729529 
L 124.90653 173.729529 
" clip-path="url(#p2e639ea23b)" style="fill: #1f77b4"/>
    <path d="M 309.66989 53.899316 
L 308.884221 53.899316 
L 308.884221 174.233129 
L 309.66989 174.233129 
L 309.66989 53.899316 
" clip-path="url(#p2e639ea23b)" style="fill: #1f77b4"/>
    <path d="M 162.618683 185.942153 
L 162.618683 185.279521 
L 134.681747 185.279521 
L 134.681747 185.942153 
L 162.618683 185.942153 
" clip-path="url(#p2e639ea23b)" style="fill: #1f77b4"/>
    <path d="M 134.943637 185.610837 
L 134.419857 185.610837 
L 134.419857 211.787307 
L 134.943637 211.787307 
L 134.943637 185.610837 
" clip-path="url(#p2e639ea23b)" style="fill: #1f77b4"/>
    <path d="M 124.90653 294.30189 
L 124.90653 294.964521 
L 347.408232 294.964521 
L 347.408232 294.30189 
L 124.90653 294.30189 
" clip-path="url(#p2e639ea23b)" style="fill: #1f77b4"/>
    <path d="M 347.146342 294.633206 
L 347.670122 294.633206 
L 347.670122 174.89576 
L 347.146342 174.89576 
L 347.146342 294.633206 
" clip-path="url(#p2e639ea23b)" style="fill: #1f77b4"/>
    <path d="M 347.408232 54.230631 
L 347.408232 53.568 
L 124.90653 53.568 
L 124.90653 54.230631 
L 347.408232 54.230631 
" clip-path="url(#p2e639ea23b)" style="fill: #1f77b4"/>
    <path d="M 125.16842 53.899316 
L 124.64464 53.899316 
L 124.64464 174.89576 
L 125.16842 174.89576 
L 125.16842 53.899316 
" clip-path="url(#p2e639ea23b)" style="fill: #1f77b4"/>
    <path d="M 135.827341 294.351588 
L 135.827341 294.517245 
L 216.044233 294.517245 
L 216.044233 294.351588 
L 135.827341 294.351588 
" clip-path="url(#p2e639ea23b)" style="fill: #1f77b4"/>
    <path d="M 227.043611 294.351588 
L 227.043611 294.517245 
L 301.897509 294.517245 
L 301.897509 294.351588 
L 227.043611 294.351588 
" clip-path="url(#p2e639ea23b)" style="fill: #1f77b4"/>
    <path d="M 347.146342 174.89576 
L 347.670122 174.89576 
L 347.670122 53.899316 
L 347.146342 53.899316 
L 347.146342 174.89576 
" clip-path="url(#p2e639ea23b)" style="fill: #1f77b4"/>
    <path d="M 125.16842 174.89576 
L 124.64464 174.89576 
L 124.64464 294.633206 
L 125.16842 294.633206 
L 125.16842 174.89576 
" clip-path="url(#p2e639ea23b)" style="fill: #1f77b4"/>
    <path d="M 347.34276 212.466945 
L 347.473705 212.466945 
L 347.473705 189.009803 
L 347.34276 189.009803 
L 347.34276 212.466945 
" clip-path="url(#p2e639ea23b)" style="fill: #1f77b4"/>
    <path d="M 308.024965 294.351588 
L 308.024965 294.517245 
L 326.171717 294.517245 
L 326.171717 294.351588 
L 308.024965 294.351588 
" clip-path="url(#p2e639ea23b)" style="fill: #1f77b4"/>
    <path d="M 125.233892 96.10395 
L 125.102947 96.10395 
L 125.102947 104.770823 
L 125.233892 104.770823 
L 125.233892 96.10395 
" clip-path="url(#p2e639ea23b)" style="fill: #1f77b4"/>
    <path d="M 124.387988 295.103674 
L 124.387988 295.488 
L 347.932012 295.488 
L 347.932012 295.103674 
L 124.387988 295.103674 
" clip-path="url(#p2e639ea23b)" style="fill: #1f77b4"/>
    <path d="M 216.568013 294.749166 
L 216.568013 294.914824 
L 227.043611 294.914824 
L 227.043611 294.749166 
L 216.568013 294.749166 
" clip-path="url(#p2e639ea23b)" style="fill: #1f77b4"/>
    <path d="M 347.780116 295.295837 
L 348.083908 295.295837 
L 348.083908 214.229544 
L 347.780116 214.229544 
L 347.780116 295.295837 
" clip-path="url(#p2e639ea23b)" style="fill: #1f77b4"/>
    <path d="M 124.236092 295.295837 
L 124.539884 295.295837 
L 124.539884 214.229544 
L 124.236092 214.229544 
L 124.236092 295.295837 
" clip-path="url(#p2e639ea23b)" style="fill: #1f77b4"/>
    <path d="M 162.43536 185.610837 
L 162.802006 185.610837 
L 162.802006 174.233129 
L 162.43536 174.233129 
L 162.43536 185.610837 
" clip-path="url(#p2e639ea23b)" style="fill: #1f77b4"/>
    <path d="M 143.950992 185.610837 
L 143.584347 185.610837 
L 143.584347 211.860196 
L 143.950992 211.860196 
L 143.950992 185.610837 
" clip-path="url(#p2e639ea23b)" style="fill: #1f77b4"/>
    <path d="M 134.681747 196.171379 
L 134.681747 196.635221 
L 143.767669 196.635221 
L 143.767669 196.171379 
L 134.681747 196.171379 
" clip-path="url(#p2e639ea23b)" style="fill: #1f77b4"/>
    <path d="M 143.767669 212.092117 
L 143.767669 211.628275 
L 134.681747 211.628275 
L 134.681747 212.092117 
L 143.767669 212.092117 
" clip-path="url(#p2e639ea23b)" style="fill: #1f77b4"/>
    <path d="M 200.029662 174.233129 
L 199.898717 174.233129 
L 199.898717 233.936194 
L 200.029662 233.936194 
L 200.029662 174.233129 
" clip-path="url(#p2e639ea23b)" style="fill: #1f77b4"/>
    <path d="M 199.96419 233.455787 
L 199.96419 233.621444 
L 236.105003 233.621444 
L 236.105003 233.455787 
L 199.96419 233.455787 
" clip-path="url(#p2e639ea23b)" style="fill: #1f77b4"/>
    <path d="M 215.062146 174.233129 
L 214.931201 174.233129 
L 214.931201 233.538615 
L 215.062146 233.538615 
L 215.062146 174.233129 
" clip-path="url(#p2e639ea23b)" style="fill: #1f77b4"/>
    <path d="M 199.96419 193.697919 
L 199.96419 193.863576 
L 214.996673 193.863576 
L 214.996673 193.697919 
L 199.96419 193.697919 
" clip-path="url(#p2e639ea23b)" style="fill: #1f77b4"/>
    <path d="M 228.470911 256.971695 
L 228.104265 256.971695 
L 228.104265 294.633206 
L 228.470911 294.633206 
L 228.470911 256.971695 
" clip-path="url(#p2e639ea23b)" style="fill: #1f77b4"/>
    <path d="M 228.287588 277.7621 
L 228.287588 277.245248 
L 210.496356 277.245248 
L 210.496356 277.7621 
L 228.287588 277.7621 
" clip-path="url(#p2e639ea23b)" style="fill: #1f77b4"/>
    <path d="M 236.311285 256.631102 
L 236.992199 256.631102 
L 236.992199 174.233129 
L 236.311285 174.233129 
L 236.311285 256.631102 
" clip-path="url(#p2e639ea23b)" style="fill: #1f77b4"/>
    <path d="M 272.972648 256.647005 
L 273.653562 256.647005 
L 273.653562 174.233129 
L 272.972648 174.233129 
L 272.972648 256.647005 
" clip-path="url(#p2e639ea23b)" style="fill: #1f77b4"/>
    <path d="M 124.90653 87.287091 
L 124.90653 87.949722 
L 150.076948 87.949722 
L 150.076948 87.287091 
L 124.90653 87.287091 
" clip-path="url(#p2e639ea23b)" style="fill: #1f77b4"/>
    <path d="M 150.338838 87.618406 
L 149.815058 87.618406 
L 149.815058 113.462456 
L 150.338838 113.462456 
L 150.338838 87.618406 
" clip-path="url(#p2e639ea23b)" style="fill: #1f77b4"/>
    <path d="M 150.076948 113.793772 
L 150.076948 113.131141 
L 124.90653 113.131141 
L 124.90653 113.793772 
L 150.076948 113.793772 
" clip-path="url(#p2e639ea23b)" style="fill: #1f77b4"/>
    <path d="M 346.994446 264.780238 
L 346.994446 264.448922 
L 334.139912 264.448922 
L 334.139912 264.780238 
L 346.994446 264.780238 
" clip-path="url(#p2e639ea23b)" style="fill: #1f77b4"/>
    <path d="M 334.270857 264.61458 
L 334.008967 264.61458 
L 334.008967 294.109727 
L 334.270857 294.109727 
L 334.270857 264.61458 
" clip-path="url(#p2e639ea23b)" style="fill: #1f77b4"/>
    <path d="M 327.277799 294.633206 
L 327.801579 294.633206 
L 327.801579 256.978321 
L 327.277799 256.978321 
L 327.277799 294.633206 
" clip-path="url(#p2e639ea23b)" style="fill: #1f77b4"/>
    <path d="M 327.120665 269.100166 
L 327.120665 268.636325 
L 314.222323 268.636325 
L 314.222323 269.100166 
L 327.120665 269.100166 
" clip-path="url(#p2e639ea23b)" style="fill: #1f77b4"/>
    <path d="M 314.039 268.868245 
L 314.405646 268.868245 
L 314.405646 257.508426 
L 314.039 257.508426 
L 314.039 268.868245 
" clip-path="url(#p2e639ea23b)" style="fill: #1f77b4"/>
    <path d="M 327.539689 256.647005 
L 327.539689 257.309637 
L 347.408232 257.309637 
L 347.408232 256.647005 
L 327.539689 256.647005 
" clip-path="url(#p2e639ea23b)" style="fill: #1f77b4"/>
    <path d="M 305.366168 257.508426 
L 304.999522 257.508426 
L 304.999522 283.35104 
L 305.366168 283.35104 
L 305.366168 257.508426 
" clip-path="url(#p2e639ea23b)" style="fill: #1f77b4"/>
    <path d="M 305.182845 283.119119 
L 305.182845 283.582961 
L 308.464988 283.582961 
L 308.464988 283.119119 
L 305.182845 283.119119 
" clip-path="url(#p2e639ea23b)" style="fill: #1f77b4"/>
    <path d="M 308.648311 283.35104 
L 308.281665 283.35104 
L 308.281665 294.633206 
L 308.648311 294.633206 
L 308.648311 283.35104 
" clip-path="url(#p2e639ea23b)" style="fill: #1f77b4"/>
    <path d="M 305.182845 283.582961 
L 305.182845 283.119119 
L 302.155532 283.119119 
L 302.155532 283.582961 
L 305.182845 283.582961 
" clip-path="url(#p2e639ea23b)" style="fill: #1f77b4"/>
    <path d="M 302.338855 283.35104 
L 301.972209 283.35104 
L 301.972209 294.633206 
L 302.338855 294.633206 
L 302.338855 283.35104 
" clip-path="url(#p2e639ea23b)" style="fill: #1f77b4"/>
    <path d="M 199.96419 213.908168 
L 199.96419 214.073826 
L 214.996673 214.073826 
L 214.996673 213.908168 
L 199.96419 213.908168 
" clip-path="url(#p2e639ea23b)" style="fill: #1f77b4"/>
    <path d="M 264.668907 256.971695 
L 263.883237 256.971695 
L 263.883237 282.549256 
L 264.668907 282.549256 
L 264.668907 256.971695 
" clip-path="url(#p2e639ea23b)" style="fill: #1f77b4"/>
    <path d="M 263.69697 283.701011 
L 263.69697 283.03838 
L 248.716865 283.03838 
L 248.716865 283.701011 
L 263.69697 283.701011 
" clip-path="url(#p2e639ea23b)" style="fill: #1f77b4"/>
    <path d="M 191.771225 257.077716 
L 191.247445 257.077716 
L 191.247445 294.633206 
L 191.771225 294.633206 
L 191.771225 257.077716 
" clip-path="url(#p2e639ea23b)" style="fill: #1f77b4"/>
    <path d="M 134.681747 212.118622 
L 134.681747 211.455991 
L 124.90653 211.455991 
L 124.90653 212.118622 
L 134.681747 212.118622 
" clip-path="url(#p2e639ea23b)" style="fill: #1f77b4"/>
    <path d="M 209.920198 294.633206 
L 210.443978 294.633206 
L 210.443978 256.978321 
L 209.920198 256.978321 
L 209.920198 294.633206 
" clip-path="url(#p2e639ea23b)" style="fill: #1f77b4"/>
    <path d="M 228.287588 256.647005 
L 228.287588 257.296384 
L 272.219627 257.296384 
L 272.219627 256.647005 
L 228.287588 256.647005 
" clip-path="url(#p2e639ea23b)" style="fill: #1f77b4"/>
    <path d="M 347.146342 256.978321 
L 346.84255 256.978321 
L 346.84255 294.633206 
L 347.146342 294.633206 
L 347.146342 256.978321 
" clip-path="url(#p2e639ea23b)" style="fill: #1f77b4"/>
    <path d="M 346.994446 294.30189 
L 346.994446 293.917564 
L 327.539689 293.917564 
L 327.539689 294.30189 
L 346.994446 294.30189 
" clip-path="url(#p2e639ea23b)" style="fill: #1f77b4"/>
    <path d="M 302.155532 294.30189 
L 302.155532 293.917564 
L 272.219627 293.917564 
L 272.219627 294.30189 
L 302.155532 294.30189 
" clip-path="url(#p2e639ea23b)" style="fill: #1f77b4"/>
    <path d="M 272.219627 294.30189 
L 272.219627 293.917564 
L 216.568013 293.917564 
L 216.568013 294.30189 
L 272.219627 294.30189 
" clip-path="url(#p2e639ea23b)" style="fill: #1f77b4"/>
    <path d="M 216.568013 294.30189 
L 216.568013 293.917564 
L 210.496356 293.917564 
L 210.496356 294.30189 
L 216.568013 294.30189 
" clip-path="url(#p2e639ea23b)" style="fill: #1f77b4"/>
    <path d="M 210.182088 294.30189 
L 210.182088 293.917564 
L 124.90653 293.917564 
L 124.90653 294.30189 
L 210.182088 294.30189 
" clip-path="url(#p2e639ea23b)" style="fill: #1f77b4"/>
    <path d="M 125.16842 294.633206 
L 125.472212 294.633206 
L 125.472212 253.748865 
L 125.16842 253.748865 
L 125.16842 294.633206 
" clip-path="url(#p2e639ea23b)" style="fill: #1f77b4"/>
    <path d="M 210.443978 294.633206 
L 210.548734 294.633206 
L 210.548734 256.978321 
L 210.443978 256.978321 
L 210.443978 294.633206 
" clip-path="url(#p2e639ea23b)" style="fill: #1f77b4"/>
    <path d="M 272.219627 257.309637 
L 272.219627 257.707215 
L 327.120665 257.707215 
L 327.120665 257.309637 
L 272.219627 257.309637 
" clip-path="url(#p2e639ea23b)" style="fill: #1f77b4"/>
    <path d="M 327.277799 256.978321 
L 326.963531 256.978321 
L 326.963531 294.633206 
L 327.277799 294.633206 
L 327.277799 256.978321 
" clip-path="url(#p2e639ea23b)" style="fill: #1f77b4"/>
    <path d="M 272.92673 257.508426 
L 272.612462 257.508426 
L 272.612462 294.633206 
L 272.92673 294.633206 
L 272.92673 257.508426 
" clip-path="url(#p2e639ea23b)" style="fill: #1f77b4"/>
    <path d="M 263.828673 256.971695 
L 263.760582 256.971695 
L 263.760582 282.578633 
L 263.828673 282.578633 
L 263.828673 256.971695 
" clip-path="url(#p2e639ea23b)" style="fill: #1f77b4"/>
    <path d="M 263.794628 282.578633 
L 263.794628 282.492491 
L 249.580409 282.492491 
L 249.580409 282.578633 
L 263.794628 282.578633 
" clip-path="url(#p2e639ea23b)" style="fill: #1f77b4"/>
    <path d="M 249.764927 293.495755 
L 249.764927 293.893334 
L 271.799705 293.893334 
L 271.799705 293.495755 
L 249.764927 293.495755 
" clip-path="url(#p2e639ea23b)" style="fill: #1f77b4"/>
    <path d="M 249.764927 282.479238 
L 249.764927 282.578633 
L 263.794628 282.578633 
L 263.794628 282.479238 
L 249.764927 282.479238 
" clip-path="url(#p2e639ea23b)" style="fill: #1f77b4"/>
   </g>
   <g id="PatchCollection_2">
    <path d="M 162.22061 254.252465 
L 125.16842 254.252465 
L 125.16842 254.345233 
L 125.16842 260.971544 
L 125.472212 260.971544 
L 125.472212 293.917564 
L 162.22061 293.917564 
L 162.22061 257.077716 
L 162.22061 254.252465 
" clip-path="url(#p2e639ea23b)" style="fill: #ff0000; fill-opacity: 0.8"/>
    <path d="M 163.016756 257.508426 
L 163.016756 293.917564 
L 191.247445 293.917564 
L 191.247445 257.508426 
L 163.016756 257.508426 
" clip-path="url(#p2e639ea23b)" style="fill: #ff0000; fill-opacity: 0.8"/>
    <path d="M 216.568013 293.917564 
L 216.568013 294.831995 
L 227.043611 294.831995 
L 227.043611 293.917564 
L 228.104265 293.917564 
L 228.104265 277.7621 
L 210.548734 277.7621 
L 210.548734 293.917564 
L 216.568013 293.917564 
" clip-path="url(#p2e639ea23b)" style="fill: #ff0000; fill-opacity: 0.8"/>
    <path d="M 228.104265 257.309637 
L 210.548734 257.309637 
L 210.548734 277.245248 
L 228.104265 277.245248 
L 228.104265 271.441116 
L 227.863326 271.441116 
L 227.863326 271.331485 
L 227.863326 263.703787 
L 228.104265 263.703787 
L 228.104265 257.309637 
" clip-path="url(#p2e639ea23b)" style="fill: #ff0000; fill-opacity: 0.8"/>
    <path d="M 304.999522 283.119119 
L 304.999522 257.707215 
L 272.92673 257.707215 
L 272.92673 293.917564 
L 301.972209 293.917564 
L 301.972209 283.119119 
L 304.999522 283.119119 
" clip-path="url(#p2e639ea23b)" style="fill: #ff0000; fill-opacity: 0.8"/>
    <path d="M 302.338855 294.30189 
L 308.281665 294.30189 
L 308.281665 283.582961 
L 305.182845 283.582961 
L 302.338855 283.582961 
L 302.338855 294.109727 
L 302.338855 294.30189 
" clip-path="url(#p2e639ea23b)" style="fill: #ff0000; fill-opacity: 0.8"/>
    <path d="M 314.405646 268.636325 
L 326.963531 268.636325 
L 326.963531 257.707215 
L 314.405646 257.707215 
L 314.405646 268.636325 
" clip-path="url(#p2e639ea23b)" style="fill: #ff0000; fill-opacity: 0.8"/>
    <path d="M 334.270857 294.30189 
L 339.063443 294.30189 
L 339.063443 293.917564 
L 346.84255 293.917564 
L 346.84255 264.780238 
L 334.270857 264.780238 
L 334.270857 294.30189 
" clip-path="url(#p2e639ea23b)" style="fill: #ff0000; fill-opacity: 0.8"/>
    <path d="M 327.801579 294.30189 
L 332.559072 294.30189 
L 332.559072 293.917564 
L 334.008967 293.917564 
L 334.008967 293.619317 
L 334.008967 264.448922 
L 346.84255 264.448922 
L 346.84255 257.309637 
L 327.801579 257.309637 
L 327.801579 294.30189 
" clip-path="url(#p2e639ea23b)" style="fill: #ff0000; fill-opacity: 0.8"/>
    <path d="M 236.311285 174.736729 
L 214.996673 174.736729 
L 214.996673 193.780748 
L 214.996673 213.990997 
L 214.996673 233.538615 
L 236.311285 233.538615 
L 236.311285 174.736729 
" clip-path="url(#p2e639ea23b)" style="fill: #ff0000; fill-opacity: 0.8"/>
    <path d="M 199.96419 213.990997 
L 199.96419 233.538615 
L 214.996673 233.538615 
L 214.996673 213.990997 
L 199.96419 213.990997 
" clip-path="url(#p2e639ea23b)" style="fill: #ff0000; fill-opacity: 0.8"/>
    <path d="M 199.96419 193.780748 
L 199.96419 213.990997 
L 214.996673 213.990997 
L 214.996673 193.780748 
L 199.96419 193.780748 
" clip-path="url(#p2e639ea23b)" style="fill: #ff0000; fill-opacity: 0.8"/>
    <path d="M 214.996673 174.736729 
L 199.96419 174.736729 
L 199.96419 193.780748 
L 214.996673 193.780748 
L 214.996673 174.736729 
" clip-path="url(#p2e639ea23b)" style="fill: #ff0000; fill-opacity: 0.8"/>
    <path d="M 209.920198 257.508426 
L 191.771225 257.508426 
L 191.771225 293.917564 
L 209.920198 293.917564 
L 209.920198 257.508426 
" clip-path="url(#p2e639ea23b)" style="fill: #ff0000; fill-opacity: 0.8"/>
    <path d="M 308.648311 294.30189 
L 326.963531 294.30189 
L 326.963531 269.100166 
L 314.039 269.100166 
L 314.039 257.707215 
L 305.366168 257.707215 
L 305.366168 283.119119 
L 308.648311 283.119119 
L 308.648311 294.30189 
" clip-path="url(#p2e639ea23b)" style="fill: #ff0000; fill-opacity: 0.8"/>
    <path d="M 143.584347 185.942153 
L 134.943637 185.942153 
L 134.943637 196.171379 
L 143.584347 196.171379 
L 143.584347 185.942153 
" clip-path="url(#p2e639ea23b)" style="fill: #ff0000; fill-opacity: 0.8"/>
    <path d="M 134.943637 196.635221 
L 134.943637 211.628275 
L 143.584347 211.628275 
L 143.584347 196.635221 
L 134.943637 196.635221 
" clip-path="url(#p2e639ea23b)" style="fill: #ff0000; fill-opacity: 0.8"/>
    <path d="M 162.43536 174.736729 
L 125.16842 174.736729 
L 125.16842 211.455991 
L 134.419857 211.455991 
L 134.419857 196.4033 
L 134.419857 185.279521 
L 143.767669 185.279521 
L 162.43536 185.279521 
L 162.43536 174.736729 
" clip-path="url(#p2e639ea23b)" style="fill: #ff0000; fill-opacity: 0.8"/>
    <path d="M 125.16842 253.245265 
L 163.016756 253.245265 
L 163.016756 256.647005 
L 191.509335 256.647005 
L 209.911843 256.647005 
L 209.920198 256.647005 
L 210.496356 256.647005 
L 228.287588 256.647005 
L 236.311285 256.647005 
L 236.311285 233.538615 
L 214.996673 233.538615 
L 199.96419 233.538615 
L 199.96419 213.990997 
L 199.96419 193.780748 
L 199.96419 174.736729 
L 162.802006 174.736729 
L 162.802006 185.942153 
L 143.950992 185.942153 
L 143.950992 196.4033 
L 143.950992 212.092117 
L 134.951992 212.092117 
L 134.681747 212.092117 
L 134.681747 212.118622 
L 125.16842 212.118622 
L 125.16842 214.229544 
L 125.16842 230.111003 
L 125.16842 251.447726 
L 125.16842 253.245265 
" clip-path="url(#p2e639ea23b)" style="fill: #ff0000; fill-opacity: 0.8"/>
    <path d="M 228.470911 257.296384 
L 228.470911 263.703787 
L 227.863326 263.703787 
L 227.863326 271.331485 
L 228.470911 271.331485 
L 228.470911 271.441116 
L 228.470911 277.503674 
L 228.470911 293.917564 
L 249.791116 293.917564 
L 249.791116 282.479238 
L 263.750106 282.479238 
L 263.750106 261.161184 
L 263.760582 261.161184 
L 263.760582 257.296384 
L 237.453176 257.296384 
L 235.850308 257.296384 
L 228.470911 257.296384 
" clip-path="url(#p2e639ea23b)" style="fill: #ff0000; fill-opacity: 0.8"/>
    <path d="M 250.894957 293.917564 
L 250.894957 294.30189 
L 271.765659 294.30189 
L 271.765659 257.296384 
L 264.668907 257.296384 
L 264.668907 282.549256 
L 263.807608 283.138701 
L 263.807608 283.701011 
L 261.199004 283.701011 
L 261.199004 283.369695 
L 249.791116 283.097081 
L 249.791116 293.917564 
L 250.894957 293.917564 
" clip-path="url(#p2e639ea23b)" style="fill: #ff0000; fill-opacity: 0.8"/>
    <path d="M 272.219627 256.647005 
L 272.972648 256.647005 
L 272.972648 174.736729 
L 236.992199 174.736729 
L 236.992199 232.625711 
L 236.992199 234.45152 
L 236.992199 256.647005 
L 263.794628 256.647005 
L 264.276072 256.647005 
L 271.799705 256.647005 
L 272.219627 256.647005 
" clip-path="url(#p2e639ea23b)" style="fill: #ff0000; fill-opacity: 0.8"/>
   </g>
  </g>
 </g>
 <defs>
  <clipPath id="p2e639ea23b">
   <rect x="113.043701" y="41.472" width="246.232599" height="266.112"/>
  </clipPath>
 </defs>
</svg>
