<?xml version="1.0" encoding="utf-8" standalone="no"?>
<!DOCTYPE svg PUBLIC "-//W3C//DTD SVG 1.1//EN"
  "http://www.w3.org/Graphics/SVG/1.1/DTD/svg11.dtd">
<svg xmlns:xlink="http://www.w3.org/1999/xlink" width="460.8pt" height="345.6pt" viewBox="0 0 460.8 345.6" xmlns="http://www.w3.org/2000/svg" version="1.1">
 <metadata>
  <rdf:RDF xmlns:dc="http://purl.org/dc/elements/1.1/" xmlns:cc="http://creativecommons.org/ns#" xmlns:rdf="http://www.w3.org/1999/02/22-rdf-syntax-ns#">
   <cc:Work>
    <dc:type rdf:resource="http://purl.org/dc/dcmitype/StillImage"/>
    <dc:date>2025-02-28T09:39:37.552578</dc:date>
    <dc:format>image/svg+xml</dc:format>
    <dc:creator>
     <cc:Agent>
      <dc:title>Matplotlib v3.10.0, https://matplotlib.org/</dc:title>
     </cc:Agent>
    </dc:creator>
   </cc:Work>
  </rdf:RDF>
 </metadata>
 <defs>
  <style type="text/css">*{stroke-linejoin: round; stroke-linecap: butt}</style>
 </defs>
 <g id="figure_1">
  <g id="patch_1">
   <path d="M 0 345.6 
L 460.8 345.6 
L 460.8 0 
L 0 0 
z
" style="fill: #ffffff"/>
  </g>
  <g id="axes_1">
   <g id="patch_2">
    <path d="M 196.844947 307.584 
L 275.475053 307.584 
L 275.475053 41.472 
L 196.844947 41.472 
z
" style="fill: #ffffff"/>
   </g>
   <g id="matplotlib.axis_1">
    <g id="xtick_1">
     <g id="line2d_1">
      <defs>
       <path id="m8bbc94de5f" d="M 0 0 
L 0 3.5 
" style="stroke: #000000; stroke-width: 0.8"/>
      </defs>
      <g>
       <use xlink:href="#m8bbc94de5f" x="201.372135" y="307.584" style="stroke: #000000; stroke-width: 0.8"/>
      </g>
     </g>
     <g id="text_1">
      <!-- 0 -->
      <g transform="translate(198.190885 322.182437) scale(0.1 -0.1)">
       <defs>
        <path id="DejaVuSans-30" d="M 2034 4250 
Q 1547 4250 1301 3770 
Q 1056 3291 1056 2328 
Q 1056 1369 1301 889 
Q 1547 409 2034 409 
Q 2525 409 2770 889 
Q 3016 1369 3016 2328 
Q 3016 3291 2770 3770 
Q 2525 4250 2034 4250 
z
M 2034 4750 
Q 2819 4750 3233 4129 
Q 3647 3509 3647 2328 
Q 3647 1150 3233 529 
Q 2819 -91 2034 -91 
Q 1250 -91 836 529 
Q 422 1150 422 2328 
Q 422 3509 836 4129 
Q 1250 4750 2034 4750 
z
" transform="scale(0.015625)"/>
       </defs>
       <use xlink:href="#DejaVuSans-30"/>
      </g>
     </g>
    </g>
    <g id="xtick_2">
     <g id="line2d_2">
      <g>
       <use xlink:href="#m8bbc94de5f" x="249.026745" y="307.584" style="stroke: #000000; stroke-width: 0.8"/>
      </g>
     </g>
     <g id="text_2">
      <!-- 5 -->
      <g transform="translate(245.845495 322.182437) scale(0.1 -0.1)">
       <defs>
        <path id="DejaVuSans-35" d="M 691 4666 
L 3169 4666 
L 3169 4134 
L 1269 4134 
L 1269 2991 
Q 1406 3038 1543 3061 
Q 1681 3084 1819 3084 
Q 2600 3084 3056 2656 
Q 3513 2228 3513 1497 
Q 3513 744 3044 326 
Q 2575 -91 1722 -91 
Q 1428 -91 1123 -41 
Q 819 9 494 109 
L 494 744 
Q 775 591 1075 516 
Q 1375 441 1709 441 
Q 2250 441 2565 725 
Q 2881 1009 2881 1497 
Q 2881 1984 2565 2268 
Q 2250 2553 1709 2553 
Q 1456 2553 1204 2497 
Q 953 2441 691 2322 
L 691 4666 
z
" transform="scale(0.015625)"/>
       </defs>
       <use xlink:href="#DejaVuSans-35"/>
      </g>
     </g>
    </g>
   </g>
   <g id="matplotlib.axis_2">
    <g id="ytick_1">
     <g id="line2d_3">
      <defs>
       <path id="ma4403e976c" d="M 0 0 
L -3.5 0 
" style="stroke: #000000; stroke-width: 0.8"/>
      </defs>
      <g>
       <use xlink:href="#ma4403e976c" x="196.844947" y="294.512516" style="stroke: #000000; stroke-width: 0.8"/>
      </g>
     </g>
     <g id="text_3">
      <!-- 0 -->
      <g transform="translate(183.482447 298.311735) scale(0.1 -0.1)">
       <use xlink:href="#DejaVuSans-30"/>
      </g>
     </g>
    </g>
    <g id="ytick_2">
     <g id="line2d_4">
      <g>
       <use xlink:href="#ma4403e976c" x="196.844947" y="245.738323" style="stroke: #000000; stroke-width: 0.8"/>
      </g>
     </g>
     <g id="text_4">
      <!-- 5 -->
      <g transform="translate(183.482447 249.537541) scale(0.1 -0.1)">
       <use xlink:href="#DejaVuSans-35"/>
      </g>
     </g>
    </g>
    <g id="ytick_3">
     <g id="line2d_5">
      <g>
       <use xlink:href="#ma4403e976c" x="196.844947" y="196.964129" style="stroke: #000000; stroke-width: 0.8"/>
      </g>
     </g>
     <g id="text_5">
      <!-- 10 -->
      <g transform="translate(177.119947 200.763348) scale(0.1 -0.1)">
       <defs>
        <path id="DejaVuSans-31" d="M 794 531 
L 1825 531 
L 1825 4091 
L 703 3866 
L 703 4441 
L 1819 4666 
L 2450 4666 
L 2450 531 
L 3481 531 
L 3481 0 
L 794 0 
L 794 531 
z
" transform="scale(0.015625)"/>
       </defs>
       <use xlink:href="#DejaVuSans-31"/>
       <use xlink:href="#DejaVuSans-30" transform="translate(63.623047 0)"/>
      </g>
     </g>
    </g>
    <g id="ytick_4">
     <g id="line2d_6">
      <g>
       <use xlink:href="#ma4403e976c" x="196.844947" y="148.189935" style="stroke: #000000; stroke-width: 0.8"/>
      </g>
     </g>
     <g id="text_6">
      <!-- 15 -->
      <g transform="translate(177.119947 151.989154) scale(0.1 -0.1)">
       <use xlink:href="#DejaVuSans-31"/>
       <use xlink:href="#DejaVuSans-35" transform="translate(63.623047 0)"/>
      </g>
     </g>
    </g>
    <g id="ytick_5">
     <g id="line2d_7">
      <g>
       <use xlink:href="#ma4403e976c" x="196.844947" y="99.415742" style="stroke: #000000; stroke-width: 0.8"/>
      </g>
     </g>
     <g id="text_7">
      <!-- 20 -->
      <g transform="translate(177.119947 103.214961) scale(0.1 -0.1)">
       <defs>
        <path id="DejaVuSans-32" d="M 1228 531 
L 3431 531 
L 3431 0 
L 469 0 
L 469 531 
Q 828 903 1448 1529 
Q 2069 2156 2228 2338 
Q 2531 2678 2651 2914 
Q 2772 3150 2772 3378 
Q 2772 3750 2511 3984 
Q 2250 4219 1831 4219 
Q 1534 4219 1204 4116 
Q 875 4013 500 3803 
L 500 4441 
Q 881 4594 1212 4672 
Q 1544 4750 1819 4750 
Q 2544 4750 2975 4387 
Q 3406 4025 3406 3419 
Q 3406 3131 3298 2873 
Q 3191 2616 2906 2266 
Q 2828 2175 2409 1742 
Q 1991 1309 1228 531 
z
" transform="scale(0.015625)"/>
       </defs>
       <use xlink:href="#DejaVuSans-32"/>
       <use xlink:href="#DejaVuSans-30" transform="translate(63.623047 0)"/>
      </g>
     </g>
    </g>
    <g id="ytick_6">
     <g id="line2d_8">
      <g>
       <use xlink:href="#ma4403e976c" x="196.844947" y="50.641548" style="stroke: #000000; stroke-width: 0.8"/>
      </g>
     </g>
     <g id="text_8">
      <!-- 25 -->
      <g transform="translate(177.119947 54.440767) scale(0.1 -0.1)">
       <use xlink:href="#DejaVuSans-32"/>
       <use xlink:href="#DejaVuSans-35" transform="translate(63.623047 0)"/>
      </g>
     </g>
    </g>
   </g>
   <g id="patch_3">
    <path d="M 196.844947 307.584 
L 196.844947 41.472 
" style="fill: none; stroke: #000000; stroke-width: 0.8; stroke-linejoin: miter; stroke-linecap: square"/>
   </g>
   <g id="patch_4">
    <path d="M 275.475053 307.584 
L 275.475053 41.472 
" style="fill: none; stroke: #000000; stroke-width: 0.8; stroke-linejoin: miter; stroke-linecap: square"/>
   </g>
   <g id="patch_5">
    <path d="M 196.844947 307.584 
L 275.475053 307.584 
" style="fill: none; stroke: #000000; stroke-width: 0.8; stroke-linejoin: miter; stroke-linecap: square"/>
   </g>
   <g id="patch_6">
    <path d="M 196.844947 41.472 
L 275.475053 41.472 
" style="fill: none; stroke: #000000; stroke-width: 0.8; stroke-linejoin: miter; stroke-linecap: square"/>
   </g>
   <g id="PatchCollection_1">
    <path d="M 202.20609 187.20929 
L 202.444363 187.20929 
L 202.444363 161.84671 
L 202.20609 161.84671 
L 202.20609 187.20929 
" clip-path="url(#p1a8be7b998)" style="fill: #1f77b4"/>
    <path d="M 270.947865 161.84671 
L 270.947865 159.895742 
L 201.372135 159.895742 
L 201.372135 161.84671 
L 270.947865 161.84671 
" clip-path="url(#p1a8be7b998)" style="fill: #1f77b4"/>
    <path d="M 200.419043 160.871226 
L 202.325227 160.871226 
L 202.325227 137.947355 
L 200.419043 137.947355 
L 200.419043 160.871226 
" clip-path="url(#p1a8be7b998)" style="fill: #1f77b4"/>
    <path d="M 200.419043 106.341677 
L 202.325227 106.341677 
L 202.325227 54.543484 
L 200.419043 54.543484 
L 200.419043 106.341677 
" clip-path="url(#p1a8be7b998)" style="fill: #1f77b4"/>
    <path d="M 201.372135 187.20929 
L 201.372135 189.160258 
L 270.947865 189.160258 
L 270.947865 187.20929 
L 201.372135 187.20929 
" clip-path="url(#p1a8be7b998)" style="fill: #1f77b4"/>
    <path d="M 224.627584 242.714323 
L 226.533769 242.714323 
L 226.533769 211.108645 
L 224.627584 211.108645 
L 224.627584 242.714323 
" clip-path="url(#p1a8be7b998)" style="fill: #1f77b4"/>
    <path d="M 224.627584 137.947355 
L 226.533769 137.947355 
L 226.533769 105.707613 
L 224.627584 105.707613 
L 224.627584 137.947355 
" clip-path="url(#p1a8be7b998)" style="fill: #1f77b4"/>
    <path d="M 202.325227 188.184774 
L 200.419043 188.184774 
L 200.419043 211.108645 
L 202.325227 211.108645 
L 202.325227 188.184774 
" clip-path="url(#p1a8be7b998)" style="fill: #1f77b4"/>
    <path d="M 202.325227 242.714323 
L 200.419043 242.714323 
L 200.419043 294.512516 
L 202.325227 294.512516 
L 202.325227 242.714323 
" clip-path="url(#p1a8be7b998)" style="fill: #1f77b4"/>
    <path d="M 201.372135 293.537032 
L 201.372135 295.488 
L 270.947865 295.488 
L 270.947865 293.537032 
L 201.372135 293.537032 
" clip-path="url(#p1a8be7b998)" style="fill: #1f77b4"/>
    <path d="M 269.994773 294.512516 
L 271.900957 294.512516 
L 271.900957 188.184774 
L 269.994773 188.184774 
L 269.994773 294.512516 
" clip-path="url(#p1a8be7b998)" style="fill: #1f77b4"/>
    <path d="M 201.372135 53.568 
L 201.372135 55.518968 
L 270.947865 55.518968 
L 270.947865 53.568 
L 201.372135 53.568 
" clip-path="url(#p1a8be7b998)" style="fill: #1f77b4"/>
    <path d="M 271.900957 54.543484 
L 269.994773 54.543484 
L 269.994773 160.871226 
L 271.900957 160.871226 
L 271.900957 54.543484 
" clip-path="url(#p1a8be7b998)" style="fill: #1f77b4"/>
    <path d="M 201.372135 136.971871 
L 201.372135 138.922839 
L 225.580677 138.922839 
L 225.580677 136.971871 
L 201.372135 136.971871 
" clip-path="url(#p1a8be7b998)" style="fill: #1f77b4"/>
    <path d="M 225.580677 212.084129 
L 225.580677 210.133161 
L 201.372135 210.133161 
L 201.372135 212.084129 
L 225.580677 212.084129 
" clip-path="url(#p1a8be7b998)" style="fill: #1f77b4"/>
    <path d="M 201.372135 268.076903 
L 201.372135 268.759742 
L 230.203174 268.759742 
L 230.203174 268.076903 
L 201.372135 268.076903 
" clip-path="url(#p1a8be7b998)" style="fill: #1f77b4"/>
    <path d="M 243.117573 264.223742 
L 242.450409 264.223742 
L 242.450409 294.512516 
L 243.117573 294.512516 
L 243.117573 264.223742 
" clip-path="url(#p1a8be7b998)" style="fill: #1f77b4"/>
    <path d="M 201.372135 80.296258 
L 201.372135 80.979097 
L 230.203174 80.979097 
L 230.203174 80.296258 
L 201.372135 80.296258 
" clip-path="url(#p1a8be7b998)" style="fill: #1f77b4"/>
    <path d="M 242.450409 84.832258 
L 243.117573 84.832258 
L 243.117573 54.543484 
L 242.450409 54.543484 
L 242.450409 84.832258 
" clip-path="url(#p1a8be7b998)" style="fill: #1f77b4"/>
    <path d="M 242.783991 251.249806 
L 242.783991 251.932645 
L 270.947865 251.932645 
L 270.947865 251.249806 
L 242.783991 251.249806 
" clip-path="url(#p1a8be7b998)" style="fill: #1f77b4"/>
    <path d="M 237.39902 276.612387 
L 236.731855 276.612387 
L 236.731855 294.512516 
L 237.39902 294.512516 
L 237.39902 276.612387 
" clip-path="url(#p1a8be7b998)" style="fill: #1f77b4"/>
    <path d="M 236.731855 72.443613 
L 237.39902 72.443613 
L 237.39902 54.543484 
L 236.731855 54.543484 
L 236.731855 72.443613 
" clip-path="url(#p1a8be7b998)" style="fill: #1f77b4"/>
    <path d="M 201.372135 207.109161 
L 201.372135 207.694452 
L 207.757852 207.694452 
L 207.757852 207.109161 
L 201.372135 207.109161 
" clip-path="url(#p1a8be7b998)" style="fill: #1f77b4"/>
    <path d="M 208.04378 207.401806 
L 207.471925 207.401806 
L 207.471925 211.108645 
L 208.04378 211.108645 
L 208.04378 207.401806 
" clip-path="url(#p1a8be7b998)" style="fill: #1f77b4"/>
    <path d="M 250.361074 188.184774 
L 249.789218 188.184774 
L 249.789218 191.891613 
L 250.361074 191.891613 
L 250.361074 188.184774 
" clip-path="url(#p1a8be7b998)" style="fill: #1f77b4"/>
    <path d="M 250.075146 195.403355 
L 250.075146 195.988645 
L 252.839113 195.988645 
L 252.839113 195.403355 
L 250.075146 195.403355 
" clip-path="url(#p1a8be7b998)" style="fill: #1f77b4"/>
    <path d="M 253.125041 188.184774 
L 252.553186 188.184774 
L 252.553186 191.891613 
L 253.125041 191.891613 
L 253.125041 188.184774 
" clip-path="url(#p1a8be7b998)" style="fill: #1f77b4"/>
    <path d="M 250.075146 191.989161 
L 250.075146 192.574452 
L 252.839113 192.574452 
L 252.839113 191.989161 
L 250.075146 191.989161 
" clip-path="url(#p1a8be7b998)" style="fill: #1f77b4"/>
    <path d="M 252.839113 195.305806 
L 252.839113 195.988645 
L 255.69839 195.988645 
L 255.69839 195.305806 
L 252.839113 195.305806 
" clip-path="url(#p1a8be7b998)" style="fill: #1f77b4"/>
    <path d="M 213.52406 265.540645 
L 213.52406 266.125935 
L 216.0021 266.125935 
L 216.0021 265.540645 
L 213.52406 265.540645 
" clip-path="url(#p1a8be7b998)" style="fill: #1f77b4"/>
    <path d="M 230.203174 263.882323 
L 230.203174 264.565161 
L 242.783991 264.565161 
L 242.783991 263.882323 
L 230.203174 263.882323 
" clip-path="url(#p1a8be7b998)" style="fill: #1f77b4"/>
    <path d="M 237.065438 276.270968 
L 237.065438 276.953806 
L 242.783991 276.953806 
L 242.783991 276.270968 
L 237.065438 276.270968 
" clip-path="url(#p1a8be7b998)" style="fill: #1f77b4"/>
    <path d="M 201.372135 141.361548 
L 201.372135 141.946839 
L 207.757852 141.946839 
L 207.757852 141.361548 
L 201.372135 141.361548 
" clip-path="url(#p1a8be7b998)" style="fill: #1f77b4"/>
    <path d="M 207.471925 141.654194 
L 208.04378 141.654194 
L 208.04378 137.947355 
L 207.471925 137.947355 
L 207.471925 141.654194 
" clip-path="url(#p1a8be7b998)" style="fill: #1f77b4"/>
    <path d="M 213.52406 82.933935 
L 213.52406 83.519225 
L 216.0021 83.519225 
L 216.0021 82.933935 
L 213.52406 82.933935 
" clip-path="url(#p1a8be7b998)" style="fill: #1f77b4"/>
    <path d="M 230.203174 84.490839 
L 230.203174 85.173677 
L 242.783991 85.173677 
L 242.783991 84.490839 
L 230.203174 84.490839 
" clip-path="url(#p1a8be7b998)" style="fill: #1f77b4"/>
    <path d="M 237.065438 72.102194 
L 237.065438 72.785032 
L 242.783991 72.785032 
L 242.783991 72.102194 
L 237.065438 72.102194 
" clip-path="url(#p1a8be7b998)" style="fill: #1f77b4"/>
    <path d="M 242.783991 97.123355 
L 242.783991 97.806194 
L 270.947865 97.806194 
L 270.947865 97.123355 
L 242.783991 97.123355 
" clip-path="url(#p1a8be7b998)" style="fill: #1f77b4"/>
    <path d="M 249.789218 160.871226 
L 250.361074 160.871226 
L 250.361074 157.164387 
L 249.789218 157.164387 
L 249.789218 160.871226 
" clip-path="url(#p1a8be7b998)" style="fill: #1f77b4"/>
    <path d="M 250.075146 153.067355 
L 250.075146 153.652645 
L 252.839113 153.652645 
L 252.839113 153.067355 
L 250.075146 153.067355 
" clip-path="url(#p1a8be7b998)" style="fill: #1f77b4"/>
    <path d="M 252.553186 160.871226 
L 253.125041 160.871226 
L 253.125041 157.164387 
L 252.553186 157.164387 
L 252.553186 160.871226 
" clip-path="url(#p1a8be7b998)" style="fill: #1f77b4"/>
    <path d="M 250.075146 156.481548 
L 250.075146 157.066839 
L 252.839113 157.066839 
L 252.839113 156.481548 
L 250.075146 156.481548 
" clip-path="url(#p1a8be7b998)" style="fill: #1f77b4"/>
    <path d="M 252.839113 153.067355 
L 252.839113 153.750194 
L 255.69839 153.750194 
L 255.69839 153.067355 
L 252.839113 153.067355 
" clip-path="url(#p1a8be7b998)" style="fill: #1f77b4"/>
    <path d="M 253.125041 191.891613 
L 252.553186 191.891613 
L 252.553186 195.696 
L 253.125041 195.696 
L 253.125041 191.891613 
" clip-path="url(#p1a8be7b998)" style="fill: #1f77b4"/>
    <path d="M 250.361074 191.891613 
L 249.789218 191.891613 
L 249.789218 195.696 
L 250.361074 195.696 
L 250.361074 191.891613 
" clip-path="url(#p1a8be7b998)" style="fill: #1f77b4"/>
    <path d="M 252.553186 157.164387 
L 253.125041 157.164387 
L 253.125041 153.36 
L 252.553186 153.36 
L 252.553186 157.164387 
" clip-path="url(#p1a8be7b998)" style="fill: #1f77b4"/>
    <path d="M 249.789218 157.164387 
L 250.361074 157.164387 
L 250.361074 153.36 
L 249.789218 153.36 
L 249.789218 157.164387 
" clip-path="url(#p1a8be7b998)" style="fill: #1f77b4"/>
    <path d="M 201.372135 241.738839 
L 201.372135 243.689806 
L 225.580677 243.689806 
L 225.580677 241.738839 
L 201.372135 241.738839 
" clip-path="url(#p1a8be7b998)" style="fill: #1f77b4"/>
    <path d="M 242.783991 245.445677 
L 242.783991 246.128516 
L 270.947865 246.128516 
L 270.947865 245.445677 
L 242.783991 245.445677 
" clip-path="url(#p1a8be7b998)" style="fill: #1f77b4"/>
    <path d="M 225.580677 243.006968 
L 225.580677 243.689806 
L 242.783991 243.689806 
L 242.783991 243.006968 
L 225.580677 243.006968 
" clip-path="url(#p1a8be7b998)" style="fill: #1f77b4"/>
    <path d="M 242.450409 264.223742 
L 243.117573 264.223742 
L 243.117573 243.348387 
L 242.450409 243.348387 
L 242.450409 264.223742 
" clip-path="url(#p1a8be7b998)" style="fill: #1f77b4"/>
    <path d="M 230.536756 243.348387 
L 229.869591 243.348387 
L 229.869591 263.882323 
L 230.536756 263.882323 
L 230.536756 243.348387 
" clip-path="url(#p1a8be7b998)" style="fill: #1f77b4"/>
    <path d="M 225.580677 107.317161 
L 225.580677 105.366194 
L 201.372135 105.366194 
L 201.372135 107.317161 
L 225.580677 107.317161 
" clip-path="url(#p1a8be7b998)" style="fill: #1f77b4"/>
    <path d="M 215.477899 242.714323 
L 214.906044 242.714323 
L 214.906044 252.859355 
L 215.477899 252.859355 
L 215.477899 242.714323 
" clip-path="url(#p1a8be7b998)" style="fill: #1f77b4"/>
    <path d="M 217.193465 253.152 
L 217.193465 252.56671 
L 215.191972 252.56671 
L 215.191972 253.152 
L 217.193465 253.152 
" clip-path="url(#p1a8be7b998)" style="fill: #1f77b4"/>
    <path d="M 217.479393 242.714323 
L 216.907538 242.714323 
L 216.907538 252.810581 
L 217.479393 252.810581 
L 217.479393 242.714323 
" clip-path="url(#p1a8be7b998)" style="fill: #1f77b4"/>
    <path d="M 215.716172 268.418323 
L 216.288028 268.418323 
L 216.288028 265.83329 
L 215.716172 265.83329 
L 215.716172 268.418323 
" clip-path="url(#p1a8be7b998)" style="fill: #1f77b4"/>
    <path d="M 217.193465 252.469161 
L 217.193465 253.152 
L 230.203174 253.152 
L 230.203174 252.469161 
L 217.193465 252.469161 
" clip-path="url(#p1a8be7b998)" style="fill: #1f77b4"/>
    <path d="M 242.783991 102.927484 
L 242.783991 103.610323 
L 270.947865 103.610323 
L 270.947865 102.927484 
L 242.783991 102.927484 
" clip-path="url(#p1a8be7b998)" style="fill: #1f77b4"/>
    <path d="M 225.580677 105.366194 
L 225.580677 106.049032 
L 242.783991 106.049032 
L 242.783991 105.366194 
L 225.580677 105.366194 
" clip-path="url(#p1a8be7b998)" style="fill: #1f77b4"/>
    <path d="M 243.117573 84.832258 
L 242.450409 84.832258 
L 242.450409 105.707613 
L 243.117573 105.707613 
L 243.117573 84.832258 
" clip-path="url(#p1a8be7b998)" style="fill: #1f77b4"/>
    <path d="M 229.869591 105.707613 
L 230.536756 105.707613 
L 230.536756 85.173677 
L 229.869591 85.173677 
L 229.869591 105.707613 
" clip-path="url(#p1a8be7b998)" style="fill: #1f77b4"/>
    <path d="M 216.288028 80.637677 
L 215.716172 80.637677 
L 215.716172 83.22658 
L 216.288028 83.22658 
L 216.288028 80.637677 
" clip-path="url(#p1a8be7b998)" style="fill: #1f77b4"/>
    <path d="M 216.907538 106.341677 
L 217.479393 106.341677 
L 217.479393 96.196645 
L 216.907538 96.196645 
L 216.907538 106.341677 
" clip-path="url(#p1a8be7b998)" style="fill: #1f77b4"/>
    <path d="M 217.193465 96.48929 
L 217.193465 95.904 
L 215.191972 95.904 
L 215.191972 96.48929 
L 217.193465 96.48929 
" clip-path="url(#p1a8be7b998)" style="fill: #1f77b4"/>
    <path d="M 215.477899 96.196645 
L 214.906044 96.196645 
L 214.906044 106.341677 
L 215.477899 106.341677 
L 215.477899 96.196645 
" clip-path="url(#p1a8be7b998)" style="fill: #1f77b4"/>
    <path d="M 217.193465 95.904 
L 217.193465 96.586839 
L 230.203174 96.586839 
L 230.203174 95.904 
L 217.193465 95.904 
" clip-path="url(#p1a8be7b998)" style="fill: #1f77b4"/>
    <path d="M 270.11391 160.871226 
L 269.875637 160.871226 
L 269.875637 188.184774 
L 270.11391 188.184774 
L 270.11391 160.871226 
" clip-path="url(#p1a8be7b998)" style="fill: #1f77b4"/>
    <path d="M 229.869591 84.832258 
L 230.536756 84.832258 
L 230.536756 80.637677 
L 229.869591 80.637677 
L 229.869591 84.832258 
" clip-path="url(#p1a8be7b998)" style="fill: #1f77b4"/>
    <path d="M 230.536756 264.223742 
L 229.869591 264.223742 
L 229.869591 268.418323 
L 230.536756 268.418323 
L 230.536756 264.223742 
" clip-path="url(#p1a8be7b998)" style="fill: #1f77b4"/>
    <path d="M 213.238133 83.22658 
L 213.809988 83.22658 
L 213.809988 80.637677 
L 213.238133 80.637677 
L 213.238133 83.22658 
" clip-path="url(#p1a8be7b998)" style="fill: #1f77b4"/>
    <path d="M 213.809988 265.83329 
L 213.238133 265.83329 
L 213.238133 268.418323 
L 213.809988 268.418323 
L 213.809988 265.83329 
" clip-path="url(#p1a8be7b998)" style="fill: #1f77b4"/>
    <path d="M 215.716172 86.539355 
L 216.288028 86.539355 
L 216.288028 83.22658 
L 215.716172 83.22658 
L 215.716172 86.539355 
" clip-path="url(#p1a8be7b998)" style="fill: #1f77b4"/>
    <path d="M 216.0021 86.832 
L 216.0021 86.24671 
L 201.372135 86.24671 
L 201.372135 86.832 
L 216.0021 86.832 
" clip-path="url(#p1a8be7b998)" style="fill: #1f77b4"/>
    <path d="M 216.288028 262.516645 
L 215.716172 262.516645 
L 215.716172 265.83329 
L 216.288028 265.83329 
L 216.288028 262.516645 
" clip-path="url(#p1a8be7b998)" style="fill: #1f77b4"/>
    <path d="M 216.0021 262.80929 
L 216.0021 262.224 
L 201.372135 262.224 
L 201.372135 262.80929 
L 216.0021 262.80929 
" clip-path="url(#p1a8be7b998)" style="fill: #1f77b4"/>
    <path d="M 270.471319 149.458065 
L 270.471319 149.555613 
L 271.900957 149.555613 
L 271.900957 149.458065 
L 270.471319 149.458065 
" clip-path="url(#p1a8be7b998)" style="fill: #1f77b4"/>
    <path d="M 270.471319 132.972387 
L 270.471319 133.069935 
L 271.900957 133.069935 
L 271.900957 132.972387 
L 270.471319 132.972387 
" clip-path="url(#p1a8be7b998)" style="fill: #1f77b4"/>
    <path d="M 270.471319 215.986065 
L 270.471319 216.083613 
L 271.900957 216.083613 
L 271.900957 215.986065 
L 270.471319 215.986065 
" clip-path="url(#p1a8be7b998)" style="fill: #1f77b4"/>
    <path d="M 270.471319 199.500387 
L 270.471319 199.597935 
L 271.900957 199.597935 
L 271.900957 199.500387 
L 270.471319 199.500387 
" clip-path="url(#p1a8be7b998)" style="fill: #1f77b4"/>
    <path d="M 270.471319 283.099355 
L 270.471319 283.196903 
L 271.900957 283.196903 
L 271.900957 283.099355 
L 270.471319 283.099355 
" clip-path="url(#p1a8be7b998)" style="fill: #1f77b4"/>
    <path d="M 270.471319 266.613677 
L 270.471319 266.711226 
L 271.900957 266.711226 
L 271.900957 266.613677 
L 270.471319 266.613677 
" clip-path="url(#p1a8be7b998)" style="fill: #1f77b4"/>
    <path d="M 201.848681 289.44 
L 201.848681 289.342452 
L 200.419043 289.342452 
L 200.419043 289.44 
L 201.848681 289.44 
" clip-path="url(#p1a8be7b998)" style="fill: #1f77b4"/>
    <path d="M 201.848681 272.954323 
L 201.848681 272.856774 
L 200.419043 272.856774 
L 200.419043 272.954323 
L 201.848681 272.954323 
" clip-path="url(#p1a8be7b998)" style="fill: #1f77b4"/>
    <path d="M 270.471319 82.344774 
L 270.471319 82.442323 
L 271.900957 82.442323 
L 271.900957 82.344774 
L 270.471319 82.344774 
" clip-path="url(#p1a8be7b998)" style="fill: #1f77b4"/>
    <path d="M 270.471319 65.859097 
L 270.471319 65.956645 
L 271.900957 65.956645 
L 271.900957 65.859097 
L 270.471319 65.859097 
" clip-path="url(#p1a8be7b998)" style="fill: #1f77b4"/>
    <path d="M 201.848681 76.199226 
L 201.848681 76.101677 
L 200.419043 76.101677 
L 200.419043 76.199226 
L 201.848681 76.199226 
" clip-path="url(#p1a8be7b998)" style="fill: #1f77b4"/>
    <path d="M 201.848681 59.713548 
L 201.848681 59.616 
L 200.419043 59.616 
L 200.419043 59.713548 
L 201.848681 59.713548 
" clip-path="url(#p1a8be7b998)" style="fill: #1f77b4"/>
   </g>
   <g id="PatchCollection_2">
    <path d="M 202.325227 189.160258 
L 202.325227 207.109161 
L 208.04378 207.109161 
L 208.04378 210.133161 
L 226.533769 210.133161 
L 226.533769 243.006968 
L 230.203174 243.006968 
L 243.117573 243.006968 
L 243.117573 245.445677 
L 269.994773 245.445677 
L 269.994773 189.160258 
L 253.125041 189.160258 
L 253.125041 191.891613 
L 253.125041 195.305806 
L 255.69839 195.305806 
L 255.69839 195.988645 
L 252.839113 195.988645 
L 249.789218 195.988645 
L 249.789218 191.891613 
L 249.789218 189.160258 
L 239.124117 189.160258 
L 202.325227 189.160258 
" clip-path="url(#p1a8be7b998)" style="fill: #ff0000; fill-opacity: 0.8"/>
    <path d="M 269.994773 159.895742 
L 269.994773 103.610323 
L 243.117573 103.610323 
L 243.117573 106.049032 
L 230.203174 106.049032 
L 226.533769 106.049032 
L 226.533769 106.341677 
L 226.533769 138.922839 
L 208.04378 138.922839 
L 208.04378 141.946839 
L 202.325227 141.946839 
L 202.325227 159.895742 
L 239.124117 159.895742 
L 249.789218 159.895742 
L 249.789218 157.164387 
L 249.789218 153.067355 
L 252.839113 153.067355 
L 255.69839 153.067355 
L 255.69839 153.750194 
L 253.125041 153.750194 
L 253.125041 157.164387 
L 253.125041 159.895742 
L 269.994773 159.895742 
" clip-path="url(#p1a8be7b998)" style="fill: #ff0000; fill-opacity: 0.8"/>
    <path d="M 202.325227 268.759742 
L 202.325227 293.537032 
L 242.450409 293.537032 
L 242.450409 276.953806 
L 237.065438 276.953806 
L 237.065438 276.270968 
L 242.450409 276.270968 
L 242.450409 264.565161 
L 230.55196 264.565161 
L 230.536756 264.565161 
L 230.536756 268.759742 
L 216.0021 268.759742 
L 213.52406 268.759742 
L 202.325227 268.759742 
" clip-path="url(#p1a8be7b998)" style="fill: #ff0000; fill-opacity: 0.8"/>
    <path d="M 243.117573 293.537032 
L 269.994773 293.537032 
L 269.994773 246.128516 
L 243.117573 246.128516 
L 243.117573 264.223742 
L 243.117573 276.612387 
L 243.117573 293.537032 
" clip-path="url(#p1a8be7b998)" style="fill: #ff0000; fill-opacity: 0.8"/>
    <path d="M 230.536756 263.882323 
L 242.450409 263.882323 
L 242.450409 245.787097 
L 242.450409 243.689806 
L 230.536756 243.689806 
L 230.536756 252.810581 
L 230.536756 263.882323 
" clip-path="url(#p1a8be7b998)" style="fill: #ff0000; fill-opacity: 0.8"/>
    <path d="M 224.627584 241.738839 
L 224.627584 212.084129 
L 207.757852 212.084129 
L 200.419043 212.084129 
L 200.419043 241.738839 
L 215.191972 241.738839 
L 217.193465 241.738839 
L 224.627584 241.738839 
" clip-path="url(#p1a8be7b998)" style="fill: #ff0000; fill-opacity: 0.8"/>
    <path d="M 224.627584 136.971871 
L 224.627584 107.317161 
L 217.193465 107.317161 
L 215.191972 107.317161 
L 200.419043 107.317161 
L 200.419043 136.971871 
L 207.757852 136.971871 
L 224.627584 136.971871 
" clip-path="url(#p1a8be7b998)" style="fill: #ff0000; fill-opacity: 0.8"/>
    <path d="M 202.325227 243.689806 
L 202.325227 245.153032 
L 202.325227 262.224 
L 216.288028 262.224 
L 216.288028 265.83329 
L 216.288028 268.076903 
L 229.869591 268.076903 
L 229.869591 264.223742 
L 229.869591 263.882323 
L 229.869591 263.866761 
L 229.869591 253.152 
L 217.193465 253.152 
L 214.906044 253.152 
L 214.906044 243.689806 
L 202.325227 243.689806 
" clip-path="url(#p1a8be7b998)" style="fill: #ff0000; fill-opacity: 0.8"/>
    <path d="M 202.325227 103.902968 
L 202.325227 105.366194 
L 214.906044 105.366194 
L 214.906044 95.904 
L 217.193465 95.904 
L 229.869591 95.904 
L 229.869591 85.189239 
L 229.869591 85.173677 
L 229.869591 84.832258 
L 229.869591 80.979097 
L 216.288028 80.979097 
L 216.288028 83.22658 
L 216.288028 86.832 
L 202.325227 86.832 
L 202.325227 103.902968 
" clip-path="url(#p1a8be7b998)" style="fill: #ff0000; fill-opacity: 0.8"/>
    <path d="M 269.994773 55.518968 
L 243.117573 55.518968 
L 243.117573 72.443613 
L 243.117573 84.832258 
L 243.117573 102.927484 
L 269.994773 102.927484 
L 269.994773 55.518968 
" clip-path="url(#p1a8be7b998)" style="fill: #ff0000; fill-opacity: 0.8"/>
    <path d="M 202.325227 55.518968 
L 202.325227 80.296258 
L 213.52406 80.296258 
L 216.0021 80.296258 
L 230.536756 80.296258 
L 230.536756 84.490839 
L 230.55196 84.490839 
L 242.450409 84.490839 
L 242.450409 72.785032 
L 237.065438 72.785032 
L 237.065438 72.102194 
L 242.450409 72.102194 
L 242.450409 55.518968 
L 202.325227 55.518968 
" clip-path="url(#p1a8be7b998)" style="fill: #ff0000; fill-opacity: 0.8"/>
    <path d="M 242.450409 85.173677 
L 230.536756 85.173677 
L 230.536756 96.245419 
L 230.536756 105.366194 
L 242.450409 105.366194 
L 242.450409 103.268903 
L 242.450409 85.173677 
" clip-path="url(#p1a8be7b998)" style="fill: #ff0000; fill-opacity: 0.8"/>
    <path d="M 269.994773 161.84671 
L 252.839113 161.84671 
L 250.075146 161.84671 
L 239.124117 161.84671 
L 239.124117 187.20929 
L 250.075146 187.20929 
L 252.839113 187.20929 
L 269.994773 187.20929 
L 269.994773 161.84671 
" clip-path="url(#p1a8be7b998)" style="fill: #ff0000; fill-opacity: 0.8"/>
    <path d="M 239.124117 161.84671 
L 202.325227 161.84671 
L 202.325227 187.20929 
L 239.124117 187.20929 
L 239.124117 161.84671 
" clip-path="url(#p1a8be7b998)" style="fill: #ff0000; fill-opacity: 0.8"/>
    <path d="M 217.479393 105.366194 
L 225.580677 105.366194 
L 229.869591 105.366194 
L 229.869591 96.586839 
L 217.479393 96.586839 
L 217.479393 105.366194 
" clip-path="url(#p1a8be7b998)" style="fill: #ff0000; fill-opacity: 0.8"/>
    <path d="M 225.580677 243.689806 
L 217.479393 243.689806 
L 217.479393 252.469161 
L 229.869591 252.469161 
L 229.869591 243.689806 
L 227.038999 243.689806 
L 225.580677 243.689806 
" clip-path="url(#p1a8be7b998)" style="fill: #ff0000; fill-opacity: 0.8"/>
   </g>
  </g>
 </g>
 <defs>
  <clipPath id="p1a8be7b998">
   <rect x="196.844947" y="41.472" width="78.630106" height="266.112"/>
  </clipPath>
 </defs>
</svg>
